%TF.GenerationSoftware,KiCad,Pcbnew,10.0.0-rc1.1*%
%TF.CreationDate,2026-07-13T15:54:52+05:30*%
%TF.ProjectId,amplifier,616d706c-6966-4696-9572-2e6b69636164,rev?*%
%TF.SameCoordinates,Original*%
%TF.FileFunction,Paste,Bot*%
%TF.FilePolarity,Positive*%
%FSLAX46Y46*%
G04 Gerber Fmt 4.6, Leading zero omitted, Abs format (unit mm)*
G04 Created by KiCad (PCBNEW 10.0.0-rc1.1) date 2026-07-13 15:54:52*
%MOMM*%
%LPD*%
G01*
G04 APERTURE LIST*
G04 Aperture macros list*
%AMRoundRect*
0 Rectangle with rounded corners*
0 $1 Rounding radius*
0 $2 $3 $4 $5 $6 $7 $8 $9 X,Y pos of 4 corners*
0 Add a 4 corners polygon primitive as box body*
4,1,4,$2,$3,$4,$5,$6,$7,$8,$9,$2,$3,0*
0 Add four circle primitives for the rounded corners*
1,1,$1+$1,$2,$3*
1,1,$1+$1,$4,$5*
1,1,$1+$1,$6,$7*
1,1,$1+$1,$8,$9*
0 Add four rect primitives between the rounded corners*
20,1,$1+$1,$2,$3,$4,$5,0*
20,1,$1+$1,$4,$5,$6,$7,0*
20,1,$1+$1,$6,$7,$8,$9,0*
20,1,$1+$1,$8,$9,$2,$3,0*%
G04 Aperture macros list end*
%TA.AperFunction,ComponentPad*%
%ADD10RoundRect,0.250000X-0.675000X-0.675000X0.675000X-0.675000X0.675000X0.675000X-0.675000X0.675000X0*%
%TD*%
%TA.AperFunction,ComponentPad*%
%ADD11RoundRect,0.250000X0.550000X-0.550000X0.550000X0.550000X-0.550000X0.550000X-0.550000X-0.550000X0*%
%TD*%
%TA.AperFunction,ComponentPad*%
%ADD12C,1.600000*%
%TD*%
%TA.AperFunction,ComponentPad*%
%ADD13C,4.400000*%
%TD*%
%TA.AperFunction,ComponentPad*%
%ADD14RoundRect,0.250000X-0.550000X-0.550000X0.550000X-0.550000X0.550000X0.550000X-0.550000X0.550000X0*%
%TD*%
%TA.AperFunction,ComponentPad*%
%ADD15C,2.340000*%
%TD*%
%TA.AperFunction,ComponentPad*%
%ADD16RoundRect,0.249999X-1.250001X-1.250001X1.250001X-1.250001X1.250001X1.250001X-1.250001X1.250001X0*%
%TD*%
%TA.AperFunction,ComponentPad*%
%ADD17C,3.000000*%
%TD*%
%TA.AperFunction,ComponentPad*%
%ADD18R,2.000000X1.905000*%
%TD*%
%TA.AperFunction,ComponentPad*%
%ADD19O,2.000000X1.905000*%
%TD*%
%TA.AperFunction,ComponentPad*%
%ADD20RoundRect,0.250000X-0.550000X0.550000X-0.550000X-0.550000X0.550000X-0.550000X0.550000X0.550000X0*%
%TD*%
%TA.AperFunction,ComponentPad*%
%ADD21RoundRect,0.250000X-0.950000X-0.550000X0.950000X-0.550000X0.950000X0.550000X-0.950000X0.550000X0*%
%TD*%
%TA.AperFunction,ComponentPad*%
%ADD22O,2.400000X1.600000*%
%TD*%
%TA.AperFunction,ComponentPad*%
%ADD23R,1.700000X1.700000*%
%TD*%
%TA.AperFunction,ComponentPad*%
%ADD24C,1.700000*%
%TD*%
%TA.AperFunction,Conductor*%
%ADD25C,1.200000*%
%TD*%
%TA.AperFunction,Conductor*%
%ADD26C,1.000000*%
%TD*%
%TA.AperFunction,Conductor*%
%ADD27C,1.500000*%
%TD*%
%TA.AperFunction,Conductor*%
%ADD28C,2.000000*%
%TD*%
%TA.AperFunction,Conductor*%
%ADD29C,0.500000*%
%TD*%
%TA.AperFunction,Conductor*%
%ADD30C,0.200000*%
%TD*%
%ADD31RoundRect,0.250000X-0.675000X-0.675000X0.675000X-0.675000X0.675000X0.675000X-0.675000X0.675000X0*%
%ADD32RoundRect,0.250000X0.550000X-0.550000X0.550000X0.550000X-0.550000X0.550000X-0.550000X-0.550000X0*%
%ADD33C,1.600000*%
%ADD34C,4.400000*%
%ADD35RoundRect,0.250000X-0.550000X-0.550000X0.550000X-0.550000X0.550000X0.550000X-0.550000X0.550000X0*%
%ADD36C,2.340000*%
%ADD37RoundRect,0.249999X-1.250001X-1.250001X1.250001X-1.250001X1.250001X1.250001X-1.250001X1.250001X0*%
%ADD38C,3.000000*%
%ADD39R,2.000000X1.905000*%
%ADD40O,2.000000X1.905000*%
%ADD41RoundRect,0.250000X-0.550000X0.550000X-0.550000X-0.550000X0.550000X-0.550000X0.550000X0.550000X0*%
%ADD42RoundRect,0.250000X-0.950000X-0.550000X0.950000X-0.550000X0.950000X0.550000X-0.950000X0.550000X0*%
%ADD43O,2.400000X1.600000*%
%ADD44R,1.700000X1.700000*%
%ADD45C,1.700000*%
%ADD46C,0.100000*%
%ADD47C,0.250000*%
%ADD48C,0.275000*%
%ADD49C,0.150000*%
%ADD50C,0.120000*%
%TA.AperFunction,Profile*%
%ADD51C,0.050000*%
%TD*%
G04 APERTURE END LIST*
D10*
%TO.P,REF\u002A\u002A,1*%
%TO.N,Net-(J2-Pin_2)*%
X68750000Y-120000000D03*
%TD*%
D11*
%TO.P,C3,1*%
%TO.N,Net-(J2-Pin_2)*%
X82500000Y-98250000D03*
D12*
%TO.P,C3,2*%
%TO.N,Net-(D1-A)*%
X82500000Y-95750000D03*
%TD*%
D13*
%TO.P,.,1*%
%TO.N,N/C*%
X95250000Y-79500000D03*
%TD*%
D14*
%TO.P,C1,1*%
%TO.N,Net-(J1-Pin_1)*%
X63000000Y-96000000D03*
D12*
%TO.P,C1,2*%
%TO.N,Net-(U1A-+)*%
X65500000Y-96000000D03*
%TD*%
D15*
%TO.P,RV1,1,1_1*%
%TO.N,Net-(J2-Pin_2)*%
X51000000Y-90000000D03*
%TO.P,RV1,2,2_2*%
%TO.N,Net-(U1B--)*%
X66000000Y-85000000D03*
%TO.P,RV1,3,3_3*%
%TO.N,Net-(U1A--)*%
X51000000Y-80000000D03*
%TD*%
D16*
%TO.P,J2,1,Pin_1_1*%
%TO.N,GND*%
X59000000Y-111750000D03*
D17*
%TO.P,J2,2,Pin_2_2*%
%TO.N,Net-(J2-Pin_2)*%
X64000000Y-111750000D03*
%TD*%
D12*
%TO.P,R1,1*%
%TO.N,Net-(U1A-+)*%
X67250000Y-102500000D03*
%TO.P,R1,2*%
%TO.N,GND*%
X57090000Y-102500000D03*
%TD*%
D16*
%TO.P,J3,1,Pin_1_1*%
%TO.N,+12V*%
X73000000Y-111250000D03*
D17*
%TO.P,J3,2,Pin_2_2*%
%TO.N,GND*%
X78000000Y-111250000D03*
%TO.P,J3,3,Pin_3_3*%
%TO.N,-12V*%
X83000000Y-111250000D03*
%TD*%
D13*
%TO.P,.,1*%
%TO.N,N/C*%
X47250000Y-119250000D03*
%TD*%
D10*
%TO.P,REF\u002A\u002A,1*%
%TO.N,Net-(J2-Pin_2)*%
X53500000Y-113500000D03*
%TD*%
D12*
%TO.P,R2,1*%
%TO.N,Net-(D1-K)*%
X81750000Y-80750000D03*
%TO.P,R2,2*%
%TO.N,-12V*%
X71590000Y-80750000D03*
%TD*%
D18*
%TO.P,Q1,1,B_1*%
%TO.N,Net-(D1-A)*%
X89000000Y-93960000D03*
D19*
%TO.P,Q1,2,C_2*%
%TO.N,+12V*%
X89000000Y-96500000D03*
%TO.P,Q1,3,E_3*%
%TO.N,Net-(J2-Pin_2)*%
X89000000Y-99040000D03*
%TD*%
D13*
%TO.P,.,1*%
%TO.N,N/C*%
X46750000Y-79250000D03*
%TD*%
%TO.P,.,1*%
%TO.N,N/C*%
X95000000Y-119500000D03*
%TD*%
D11*
%TO.P,C2,1*%
%TO.N,Net-(D1-A)*%
X79750000Y-87500000D03*
D12*
%TO.P,C2,2*%
%TO.N,Net-(D1-K)*%
X79750000Y-85000000D03*
%TD*%
D18*
%TO.P,Q2,1,B_1*%
%TO.N,Net-(D1-K)*%
X89000000Y-107000000D03*
D19*
%TO.P,Q2,2,C_2*%
%TO.N,-12V*%
X89000000Y-109540000D03*
%TO.P,Q2,3,E_3*%
%TO.N,Net-(J2-Pin_2)*%
X89000000Y-112080000D03*
%TD*%
D20*
%TO.P,D1,1,K_1*%
%TO.N,Net-(D1-K)*%
X85500000Y-84440000D03*
D12*
%TO.P,D1,2,A_2*%
%TO.N,Net-(D1-A)*%
X85500000Y-92060000D03*
%TD*%
D21*
%TO.P,U1,1*%
%TO.N,Net-(U1A--)*%
X70130000Y-92170000D03*
D22*
%TO.P,U1,2,-_2*%
X70130000Y-94710000D03*
%TO.P,U1,3,+_3*%
%TO.N,Net-(U1A-+)*%
X70130000Y-97250000D03*
%TO.P,U1,4,V-_4*%
%TO.N,-12V*%
X70130000Y-99790000D03*
%TO.P,U1,5,+_5*%
%TO.N,GND*%
X77750000Y-99790000D03*
%TO.P,U1,6,-_6*%
%TO.N,Net-(U1B--)*%
X77750000Y-97250000D03*
%TO.P,U1,7*%
%TO.N,Net-(D1-A)*%
X77750000Y-94710000D03*
%TO.P,U1,8,V+_8*%
%TO.N,+12V*%
X77750000Y-92170000D03*
%TD*%
D10*
%TO.P,REF\u002A\u002A,1*%
%TO.N,Net-(D1-K)*%
X94250000Y-103750000D03*
%TD*%
D23*
%TO.P,J1,1,Pin_1_1*%
%TO.N,Net-(J1-Pin_1)*%
X53500000Y-97750000D03*
D24*
%TO.P,J1,2,Pin_2_2*%
%TO.N,GND*%
X53500000Y-100290000D03*
%TD*%
%TO.N,Net-(J2-Pin_2)*%
D25*
X68750000Y-120000000D02*
X81080000Y-120000000D01*
D26*
X53500000Y-113500000D02*
X51000000Y-111000000D01*
X51000000Y-111000000D02*
X51000000Y-90000000D01*
X68750000Y-116500000D02*
X68750000Y-120000000D01*
X64000000Y-111750000D02*
X68750000Y-116500000D01*
D25*
X81080000Y-120000000D02*
X89000000Y-112080000D01*
%TO.N,Net-(D1-A)*%
D27*
X79850000Y-94710000D02*
X82500000Y-92060000D01*
X85500000Y-92060000D02*
X87100000Y-92060000D01*
X85500000Y-92060000D02*
X82500000Y-95060000D01*
X87100000Y-92060000D02*
X89000000Y-93960000D01*
D26*
X82500000Y-92060000D02*
X85500000Y-92060000D01*
D27*
X82500000Y-95060000D02*
X82500000Y-95750000D01*
D26*
X79750000Y-87500000D02*
X79750000Y-89310000D01*
X79750000Y-89310000D02*
X82500000Y-92060000D01*
D27*
X77750000Y-94710000D02*
X79850000Y-94710000D01*
%TO.N,Net-(J1-Pin_1)*%
X61000000Y-96000000D02*
X63000000Y-96000000D01*
X53500000Y-97750000D02*
X59250000Y-97750000D01*
X59250000Y-97750000D02*
X61000000Y-96000000D01*
%TO.N,Net-(U1A-+)*%
X66750000Y-97250000D02*
X65500000Y-96000000D01*
X67250000Y-102500000D02*
X67250000Y-97750000D01*
X67250000Y-97750000D02*
X65500000Y-96000000D01*
X70130000Y-97250000D02*
X66750000Y-97250000D01*
%TO.N,Net-(U1B--)*%
D26*
X66000000Y-85000000D02*
X69750000Y-85000000D01*
X75250000Y-97250000D02*
X77750000Y-97250000D01*
X75500000Y-91875634D02*
X75500000Y-97000000D01*
X72500000Y-88875635D02*
X73144365Y-89520000D01*
X72500000Y-87750000D02*
X72500000Y-88875635D01*
X69750000Y-85000000D02*
X72500000Y-87750000D01*
X75500000Y-97000000D02*
X75250000Y-97250000D01*
X73144365Y-89520000D02*
X75500000Y-91875634D01*
%TO.N,Net-(U1A--)*%
D27*
X51000000Y-80000000D02*
X63170000Y-92170000D01*
X63170000Y-92170000D02*
X70130000Y-92170000D01*
D26*
X70130000Y-94710000D02*
X70130000Y-92170000D01*
%TO.N,GND*%
D28*
X57090000Y-102500000D02*
X59000000Y-104410000D01*
D29*
X72250000Y-105290000D02*
X70750000Y-106790000D01*
X66250000Y-121750000D02*
X92000000Y-121750000D01*
D28*
X59000000Y-104410000D02*
X59000000Y-111750000D01*
X54880000Y-100290000D02*
X57090000Y-102500000D01*
D29*
X72250000Y-100750000D02*
X73210000Y-99790000D01*
X90750000Y-112785199D02*
X90750000Y-101000000D01*
X88250000Y-101000000D02*
X78000000Y-111250000D01*
X70750000Y-106790000D02*
X70750000Y-112921142D01*
X73210000Y-99790000D02*
X77750000Y-99790000D01*
X72250000Y-100750000D02*
X72250000Y-105290000D01*
X90750000Y-101000000D02*
X88250000Y-101000000D01*
X71328858Y-113500000D02*
X75750000Y-113500000D01*
X59000000Y-111750000D02*
X59000000Y-114500000D01*
D28*
X53500000Y-100290000D02*
X54880000Y-100290000D01*
D29*
X70750000Y-112921142D02*
X71328858Y-113500000D01*
X75750000Y-113500000D02*
X78000000Y-111250000D01*
X59000000Y-114500000D02*
X66250000Y-121750000D01*
X92000000Y-121750000D02*
X92000000Y-114035199D01*
X92000000Y-114035199D02*
X90750000Y-112785199D01*
%TO.N,+12V*%
D30*
X92725000Y-100225000D02*
X89000000Y-96500000D01*
X96750000Y-93010051D02*
X96750000Y-103809010D01*
D27*
X86000000Y-97500000D02*
X87000000Y-96500000D01*
D30*
X73600000Y-84170101D02*
X78420101Y-79350000D01*
X92725000Y-104784010D02*
X92725000Y-100225000D01*
D27*
X82000000Y-102250000D02*
X84250000Y-102250000D01*
D30*
X73600000Y-88420000D02*
X73600000Y-84170101D01*
D27*
X87000000Y-96500000D02*
X89000000Y-96500000D01*
D30*
X96750000Y-103809010D02*
X95284010Y-105275000D01*
X93215990Y-105275000D02*
X92725000Y-104784010D01*
X83089949Y-79350000D02*
X96750000Y-93010051D01*
D27*
X86000000Y-100500000D02*
X86000000Y-97500000D01*
D30*
X78420101Y-79350000D02*
X83089949Y-79350000D01*
X95284010Y-105275000D02*
X93215990Y-105275000D01*
D27*
X73000000Y-111250000D02*
X82000000Y-102250000D01*
D30*
X77350000Y-92170000D02*
X73600000Y-88420000D01*
D27*
X84250000Y-102250000D02*
X86000000Y-100500000D01*
D30*
X77750000Y-92170000D02*
X77350000Y-92170000D01*
%TO.N,-12V*%
D26*
X63830000Y-84101156D02*
X63830000Y-85898844D01*
D29*
X70130000Y-102120000D02*
X67750000Y-104500000D01*
D26*
X70535584Y-99790000D02*
X70130000Y-99790000D01*
D29*
X83000000Y-111250000D02*
X84750000Y-109500000D01*
X70130000Y-115130000D02*
X79120000Y-115130000D01*
D26*
X68301156Y-90370000D02*
X71604694Y-90370000D01*
D29*
X70130000Y-99790000D02*
X70130000Y-102120000D01*
D27*
X82000000Y-111250000D02*
X82830000Y-112080000D01*
D26*
X71590000Y-80750000D02*
X67181156Y-80750000D01*
D29*
X85790000Y-109540000D02*
X89000000Y-109540000D01*
D26*
X63830000Y-85898844D02*
X68301156Y-90370000D01*
X72330000Y-91095306D02*
X72330000Y-97995584D01*
D29*
X79120000Y-115130000D02*
X83000000Y-111250000D01*
D26*
X67181156Y-80750000D02*
X63830000Y-84101156D01*
X71604694Y-90370000D02*
X72330000Y-91095306D01*
D29*
X67750000Y-104500000D02*
X67750000Y-112750000D01*
X67750000Y-112750000D02*
X70130000Y-115130000D01*
D26*
X72330000Y-97995584D02*
X70535584Y-99790000D01*
D29*
X85750000Y-109500000D02*
X85790000Y-109540000D01*
X84750000Y-109500000D02*
X85750000Y-109500000D01*
%TO.N,Net-(D1-K)*%
D26*
X82500000Y-81500000D02*
X81750000Y-80750000D01*
D25*
X82500000Y-87440000D02*
X82500000Y-88250000D01*
D26*
X79750000Y-82750000D02*
X81750000Y-80750000D01*
X85500000Y-84440000D02*
X82560000Y-81500000D01*
D25*
X91292893Y-89250000D02*
X94250000Y-92207107D01*
X85500000Y-84440000D02*
X82500000Y-87440000D01*
D26*
X82560000Y-81500000D02*
X82500000Y-81500000D01*
D25*
X82500000Y-88250000D02*
X83500000Y-89250000D01*
X94250000Y-92207107D02*
X94250000Y-103750000D01*
X83500000Y-89250000D02*
X91292893Y-89250000D01*
D26*
X79750000Y-85000000D02*
X79750000Y-82750000D01*
%TD*%
%TA.AperFunction,Conductor*%
%TO.N,GND*%
G36*
X52205703Y-98846389D02*
G01*
X52223762Y-98865786D01*
X52292454Y-98957546D01*
X52297028Y-98960970D01*
X52407664Y-99043793D01*
X52407671Y-99043797D01*
X52438738Y-99055384D01*
X52542517Y-99094091D01*
X52602127Y-99100500D01*
X52612685Y-99100499D01*
X52679723Y-99120179D01*
X52700372Y-99136818D01*
X53370591Y-99807037D01*
X53307007Y-99824075D01*
X53192993Y-99889901D01*
X53099901Y-99982993D01*
X53034075Y-100097007D01*
X53017037Y-100160591D01*
X52384728Y-99528282D01*
X52384727Y-99528282D01*
X52345380Y-99582439D01*
X52248904Y-99771782D01*
X52242431Y-99791706D01*
X52202994Y-99849381D01*
X52138635Y-99876580D01*
X52069789Y-99864665D01*
X52018313Y-99817421D01*
X52000500Y-99753388D01*
X52000500Y-98940102D01*
X52020185Y-98873063D01*
X52072989Y-98827308D01*
X52142147Y-98817364D01*
X52205703Y-98846389D01*
G37*
%TD.AperFunction*%
%TA.AperFunction,Conductor*%
G36*
X98366963Y-76073257D02*
G01*
X98412718Y-76126061D01*
X98423924Y-76177572D01*
X98423924Y-123640438D01*
X98404239Y-123707477D01*
X98351435Y-123753232D01*
X98299924Y-123764438D01*
X43874500Y-123764438D01*
X43807461Y-123744753D01*
X43761706Y-123691949D01*
X43750500Y-123640438D01*
X43750500Y-119098336D01*
X44549500Y-119098336D01*
X44549500Y-119401663D01*
X44583457Y-119703048D01*
X44583460Y-119703062D01*
X44650953Y-119998771D01*
X44650957Y-119998783D01*
X44751133Y-120285068D01*
X44882733Y-120558338D01*
X44882735Y-120558341D01*
X45044108Y-120815164D01*
X45063447Y-120839414D01*
X45207356Y-121019871D01*
X45233221Y-121052304D01*
X45447696Y-121266779D01*
X45684836Y-121455892D01*
X45941659Y-121617265D01*
X46214935Y-121748868D01*
X46429951Y-121824105D01*
X46501216Y-121849042D01*
X46501228Y-121849046D01*
X46796937Y-121916540D01*
X46796946Y-121916541D01*
X46796951Y-121916542D01*
X46997874Y-121939180D01*
X47098337Y-121950499D01*
X47098340Y-121950500D01*
X47098343Y-121950500D01*
X47401660Y-121950500D01*
X47401661Y-121950499D01*
X47555694Y-121933144D01*
X47703048Y-121916542D01*
X47703051Y-121916541D01*
X47703063Y-121916540D01*
X47998772Y-121849046D01*
X48285065Y-121748868D01*
X48558341Y-121617265D01*
X48815164Y-121455892D01*
X49052304Y-121266779D01*
X49266779Y-121052304D01*
X49455892Y-120815164D01*
X49617265Y-120558341D01*
X49748868Y-120285065D01*
X49849046Y-119998772D01*
X49916540Y-119703063D01*
X49922332Y-119651663D01*
X49950499Y-119401663D01*
X49950500Y-119401659D01*
X49950500Y-119098340D01*
X49950499Y-119098336D01*
X49944709Y-119046951D01*
X49923234Y-118856344D01*
X49916542Y-118796951D01*
X49916541Y-118796946D01*
X49916540Y-118796937D01*
X49849046Y-118501228D01*
X49748868Y-118214935D01*
X49617265Y-117941659D01*
X49455892Y-117684836D01*
X49266779Y-117447696D01*
X49052304Y-117233221D01*
X48815164Y-117044108D01*
X48558341Y-116882735D01*
X48558338Y-116882733D01*
X48285068Y-116751133D01*
X47998783Y-116650957D01*
X47998771Y-116650953D01*
X47770556Y-116598864D01*
X47703063Y-116583460D01*
X47703060Y-116583459D01*
X47703048Y-116583457D01*
X47401663Y-116549500D01*
X47401657Y-116549500D01*
X47098343Y-116549500D01*
X47098336Y-116549500D01*
X46796951Y-116583457D01*
X46796937Y-116583460D01*
X46501228Y-116650953D01*
X46501216Y-116650957D01*
X46214931Y-116751133D01*
X45941661Y-116882733D01*
X45684837Y-117044107D01*
X45447696Y-117233220D01*
X45233220Y-117447696D01*
X45044107Y-117684837D01*
X44882733Y-117941661D01*
X44751133Y-118214931D01*
X44650957Y-118501216D01*
X44650953Y-118501228D01*
X44583460Y-118796937D01*
X44583457Y-118796951D01*
X44549500Y-119098336D01*
X43750500Y-119098336D01*
X43750500Y-79098336D01*
X44049500Y-79098336D01*
X44049500Y-79401663D01*
X44083457Y-79703048D01*
X44083459Y-79703060D01*
X44083460Y-79703063D01*
X44096007Y-79758034D01*
X44150953Y-79998771D01*
X44150957Y-79998783D01*
X44251133Y-80285068D01*
X44382733Y-80558338D01*
X44382735Y-80558341D01*
X44544108Y-80815164D01*
X44733221Y-81052304D01*
X44947696Y-81266779D01*
X45184836Y-81455892D01*
X45441659Y-81617265D01*
X45714935Y-81748868D01*
X45929951Y-81824105D01*
X46001216Y-81849042D01*
X46001228Y-81849046D01*
X46296937Y-81916540D01*
X46296946Y-81916541D01*
X46296951Y-81916542D01*
X46497874Y-81939180D01*
X46598337Y-81950499D01*
X46598340Y-81950500D01*
X46598343Y-81950500D01*
X46901660Y-81950500D01*
X46901661Y-81950499D01*
X47055694Y-81933144D01*
X47203048Y-81916542D01*
X47203051Y-81916541D01*
X47203063Y-81916540D01*
X47498772Y-81849046D01*
X47785065Y-81748868D01*
X48058341Y-81617265D01*
X48315164Y-81455892D01*
X48552304Y-81266779D01*
X48766779Y-81052304D01*
X48955892Y-80815164D01*
X49117265Y-80558341D01*
X49166889Y-80455296D01*
X49213711Y-80403436D01*
X49281138Y-80385123D01*
X49347762Y-80406170D01*
X49392430Y-80459897D01*
X49398383Y-80477003D01*
X49414759Y-80538117D01*
X49498560Y-80740428D01*
X49498562Y-80740433D01*
X49498565Y-80740438D01*
X49608049Y-80930070D01*
X49741355Y-81103798D01*
X49741361Y-81103805D01*
X49896194Y-81258638D01*
X49896201Y-81258644D01*
X50069929Y-81391950D01*
X50259561Y-81501434D01*
X50259563Y-81501434D01*
X50259572Y-81501440D01*
X50461883Y-81585241D01*
X50673402Y-81641917D01*
X50855170Y-81665847D01*
X50862041Y-81666752D01*
X50925937Y-81695019D01*
X50933536Y-81702010D01*
X62355354Y-93123828D01*
X62514595Y-93239524D01*
X62689974Y-93328884D01*
X62843498Y-93378767D01*
X62843500Y-93378768D01*
X62877166Y-93389707D01*
X62877169Y-93389707D01*
X62877174Y-93389709D01*
X62967213Y-93403969D01*
X63071578Y-93420500D01*
X63071583Y-93420500D01*
X68887993Y-93420500D01*
X68926994Y-93426793D01*
X68942568Y-93431953D01*
X69000013Y-93471724D01*
X69026838Y-93536240D01*
X69014524Y-93605016D01*
X68976451Y-93649978D01*
X68882787Y-93718028D01*
X68882782Y-93718032D01*
X68738028Y-93862786D01*
X68617715Y-94028386D01*
X68524781Y-94210776D01*
X68461522Y-94405465D01*
X68429500Y-94607648D01*
X68429500Y-94812351D01*
X68461522Y-95014534D01*
X68524781Y-95209223D01*
X68569610Y-95297203D01*
X68608364Y-95373262D01*
X68617715Y-95391613D01*
X68738028Y-95557213D01*
X68738034Y-95557219D01*
X68882781Y-95701966D01*
X68933014Y-95738462D01*
X68983554Y-95775181D01*
X69026220Y-95830511D01*
X69032199Y-95900125D01*
X68999594Y-95961920D01*
X68938755Y-95996277D01*
X68910669Y-95999500D01*
X67319337Y-95999500D01*
X67252298Y-95979815D01*
X67231656Y-95963181D01*
X66652584Y-95384110D01*
X66629780Y-95352723D01*
X66612287Y-95318390D01*
X66491966Y-95152781D01*
X66347219Y-95008034D01*
X66347213Y-95008028D01*
X66181613Y-94887715D01*
X66181612Y-94887714D01*
X66181610Y-94887713D01*
X66121898Y-94857288D01*
X65999223Y-94794781D01*
X65804534Y-94731522D01*
X65629995Y-94703878D01*
X65602352Y-94699500D01*
X65397648Y-94699500D01*
X65373329Y-94703351D01*
X65195465Y-94731522D01*
X65000776Y-94794781D01*
X64818386Y-94887715D01*
X64652786Y-95008028D01*
X64508032Y-95152782D01*
X64508031Y-95152784D01*
X64467447Y-95208642D01*
X64412117Y-95251307D01*
X64342503Y-95257285D01*
X64280709Y-95224678D01*
X64249425Y-95174760D01*
X64234814Y-95130666D01*
X64142712Y-94981344D01*
X64018656Y-94857288D01*
X63869334Y-94765186D01*
X63702797Y-94710001D01*
X63702795Y-94710000D01*
X63600010Y-94699500D01*
X62399998Y-94699500D01*
X62399981Y-94699501D01*
X62297203Y-94710000D01*
X62297200Y-94710001D01*
X62196997Y-94743206D01*
X62157993Y-94749500D01*
X60901578Y-94749500D01*
X60742816Y-94774646D01*
X60742815Y-94774646D01*
X60707173Y-94780290D01*
X60519971Y-94841117D01*
X60344591Y-94930478D01*
X60185360Y-95046165D01*
X60185355Y-95046169D01*
X58768345Y-96463181D01*
X58707022Y-96496666D01*
X58680664Y-96499500D01*
X54691439Y-96499500D01*
X54624400Y-96479815D01*
X54617128Y-96474767D01*
X54592331Y-96456204D01*
X54592328Y-96456202D01*
X54457482Y-96405908D01*
X54457483Y-96405908D01*
X54397883Y-96399501D01*
X54397881Y-96399500D01*
X54397873Y-96399500D01*
X54397864Y-96399500D01*
X52602129Y-96399500D01*
X52602123Y-96399501D01*
X52542516Y-96405908D01*
X52407671Y-96456202D01*
X52407664Y-96456206D01*
X52292455Y-96542452D01*
X52292452Y-96542455D01*
X52223766Y-96634208D01*
X52167832Y-96676079D01*
X52098141Y-96681063D01*
X52036818Y-96647577D01*
X52003334Y-96586254D01*
X52000500Y-96559897D01*
X52000500Y-91399057D01*
X52020185Y-91332018D01*
X52049013Y-91300681D01*
X52103800Y-91258643D01*
X52258643Y-91103800D01*
X52391950Y-90930071D01*
X52501440Y-90740428D01*
X52585241Y-90538117D01*
X52641917Y-90326598D01*
X52670500Y-90109490D01*
X52670500Y-89890510D01*
X52641917Y-89673402D01*
X52585241Y-89461883D01*
X52501440Y-89259572D01*
X52391950Y-89069929D01*
X52258643Y-88896200D01*
X52258638Y-88896194D01*
X52103805Y-88741361D01*
X52103798Y-88741355D01*
X51930070Y-88608049D01*
X51740438Y-88498565D01*
X51740433Y-88498562D01*
X51740428Y-88498560D01*
X51538117Y-88414759D01*
X51538118Y-88414759D01*
X51538115Y-88414758D01*
X51432357Y-88386421D01*
X51326598Y-88358083D01*
X51290314Y-88353306D01*
X51109497Y-88329500D01*
X51109490Y-88329500D01*
X50890510Y-88329500D01*
X50890502Y-88329500D01*
X50683853Y-88356707D01*
X50673402Y-88358083D01*
X50631424Y-88369331D01*
X50461884Y-88414758D01*
X50343374Y-88463847D01*
X50259572Y-88498560D01*
X50259569Y-88498561D01*
X50259561Y-88498565D01*
X50069929Y-88608049D01*
X49896201Y-88741355D01*
X49896194Y-88741361D01*
X49741361Y-88896194D01*
X49741355Y-88896201D01*
X49608049Y-89069929D01*
X49498565Y-89259561D01*
X49498561Y-89259569D01*
X49498560Y-89259572D01*
X49469389Y-89329997D01*
X49414758Y-89461884D01*
X49358084Y-89673399D01*
X49358082Y-89673410D01*
X49329500Y-89890502D01*
X49329500Y-90109497D01*
X49350553Y-90269404D01*
X49358083Y-90326598D01*
X49414759Y-90538117D01*
X49498560Y-90740428D01*
X49498562Y-90740433D01*
X49498565Y-90740438D01*
X49608049Y-90930070D01*
X49741355Y-91103798D01*
X49741361Y-91103805D01*
X49896198Y-91258642D01*
X49923367Y-91279488D01*
X49950985Y-91300681D01*
X49992189Y-91357107D01*
X49999500Y-91399057D01*
X49999500Y-111098543D01*
X50003553Y-111118919D01*
X50014924Y-111176082D01*
X50032681Y-111265354D01*
X50037949Y-111291835D01*
X50037950Y-111291837D01*
X50037950Y-111291839D01*
X50113364Y-111473907D01*
X50113371Y-111473920D01*
X50222860Y-111637781D01*
X50222863Y-111637785D01*
X50366537Y-111781459D01*
X50366559Y-111781479D01*
X52038181Y-113453101D01*
X52071666Y-113514424D01*
X52074500Y-113540782D01*
X52074500Y-114225001D01*
X52074501Y-114225019D01*
X52085000Y-114327796D01*
X52085001Y-114327799D01*
X52140185Y-114494331D01*
X52140186Y-114494334D01*
X52232288Y-114643656D01*
X52356344Y-114767712D01*
X52505666Y-114859814D01*
X52672203Y-114914999D01*
X52774991Y-114925500D01*
X54225008Y-114925499D01*
X54327797Y-114914999D01*
X54494334Y-114859814D01*
X54643656Y-114767712D01*
X54767712Y-114643656D01*
X54859814Y-114494334D01*
X54914999Y-114327797D01*
X54925500Y-114225009D01*
X54925499Y-112774992D01*
X54914999Y-112672203D01*
X54859814Y-112505666D01*
X54767712Y-112356344D01*
X54643656Y-112232288D01*
X54495839Y-112141114D01*
X54494336Y-112140187D01*
X54494331Y-112140185D01*
X54483123Y-112136471D01*
X54327797Y-112085001D01*
X54327795Y-112085000D01*
X54225016Y-112074500D01*
X54225009Y-112074500D01*
X53540782Y-112074500D01*
X53473743Y-112054815D01*
X53453101Y-112038181D01*
X52036819Y-110621899D01*
X52003334Y-110560576D01*
X52000500Y-110534218D01*
X52000500Y-110450013D01*
X57000000Y-110450013D01*
X57000000Y-111500000D01*
X58399999Y-111500000D01*
X58374979Y-111560402D01*
X58350000Y-111685981D01*
X58350000Y-111814019D01*
X58374979Y-111939598D01*
X58399999Y-112000000D01*
X57000001Y-112000000D01*
X57000001Y-113049986D01*
X57010494Y-113152696D01*
X57010494Y-113152698D01*
X57065640Y-113319119D01*
X57065645Y-113319130D01*
X57157680Y-113468340D01*
X57157683Y-113468344D01*
X57281655Y-113592316D01*
X57281659Y-113592319D01*
X57430869Y-113684354D01*
X57430880Y-113684359D01*
X57597302Y-113739505D01*
X57700020Y-113749999D01*
X58749999Y-113749999D01*
X58750000Y-113749998D01*
X58750000Y-112350001D01*
X58810402Y-112375021D01*
X58935981Y-112400000D01*
X59064019Y-112400000D01*
X59189598Y-112375021D01*
X59250000Y-112350001D01*
X59250000Y-113749999D01*
X60299972Y-113749999D01*
X60299986Y-113749998D01*
X60402696Y-113739505D01*
X60402698Y-113739505D01*
X60569119Y-113684359D01*
X60569130Y-113684354D01*
X60718340Y-113592319D01*
X60718344Y-113592316D01*
X60842316Y-113468344D01*
X60842319Y-113468340D01*
X60934354Y-113319130D01*
X60934359Y-113319119D01*
X60989505Y-113152697D01*
X60999999Y-113049986D01*
X61000000Y-113049973D01*
X61000000Y-112000000D01*
X59600001Y-112000000D01*
X59625021Y-111939598D01*
X59650000Y-111814019D01*
X59650000Y-111685981D01*
X59625021Y-111560402D01*
X59600001Y-111500000D01*
X60999999Y-111500000D01*
X60999999Y-110450028D01*
X60999998Y-110450013D01*
X60989505Y-110347303D01*
X60989505Y-110347301D01*
X60934359Y-110180880D01*
X60934354Y-110180869D01*
X60842319Y-110031659D01*
X60842316Y-110031655D01*
X60718344Y-109907683D01*
X60718340Y-109907680D01*
X60569130Y-109815645D01*
X60569119Y-109815640D01*
X60402697Y-109760494D01*
X60299986Y-109750000D01*
X59250000Y-109750000D01*
X59250000Y-111149998D01*
X59189598Y-111124979D01*
X59064019Y-111100000D01*
X58935981Y-111100000D01*
X58810402Y-111124979D01*
X58750000Y-111149998D01*
X58750000Y-109750000D01*
X57700028Y-109750000D01*
X57700012Y-109750001D01*
X57597303Y-109760494D01*
X57597301Y-109760494D01*
X57430880Y-109815640D01*
X57430869Y-109815645D01*
X57281659Y-109907680D01*
X57281655Y-109907683D01*
X57157683Y-110031655D01*
X57157680Y-110031659D01*
X57065645Y-110180869D01*
X57065640Y-110180880D01*
X57010494Y-110347302D01*
X57000000Y-110450013D01*
X52000500Y-110450013D01*
X52000500Y-102397682D01*
X55790000Y-102397682D01*
X55790000Y-102602317D01*
X55822009Y-102804417D01*
X55885244Y-102999031D01*
X55978141Y-103181350D01*
X55978147Y-103181359D01*
X56010523Y-103225921D01*
X56010524Y-103225922D01*
X56690000Y-102546446D01*
X56690000Y-102552661D01*
X56717259Y-102654394D01*
X56769920Y-102745606D01*
X56844394Y-102820080D01*
X56935606Y-102872741D01*
X57037339Y-102900000D01*
X57043553Y-102900000D01*
X56364076Y-103579474D01*
X56408650Y-103611859D01*
X56590968Y-103704755D01*
X56785582Y-103767990D01*
X56987683Y-103800000D01*
X57192317Y-103800000D01*
X57394417Y-103767990D01*
X57589031Y-103704755D01*
X57771349Y-103611859D01*
X57815921Y-103579474D01*
X57136447Y-102900000D01*
X57142661Y-102900000D01*
X57244394Y-102872741D01*
X57335606Y-102820080D01*
X57410080Y-102745606D01*
X57462741Y-102654394D01*
X57490000Y-102552661D01*
X57490000Y-102546447D01*
X58169474Y-103225921D01*
X58201859Y-103181349D01*
X58294755Y-102999031D01*
X58357990Y-102804417D01*
X58390000Y-102602317D01*
X58390000Y-102397682D01*
X58357990Y-102195582D01*
X58294755Y-102000968D01*
X58201859Y-101818650D01*
X58169474Y-101774077D01*
X58169474Y-101774076D01*
X57490000Y-102453551D01*
X57490000Y-102447339D01*
X57462741Y-102345606D01*
X57410080Y-102254394D01*
X57335606Y-102179920D01*
X57244394Y-102127259D01*
X57142661Y-102100000D01*
X57136446Y-102100000D01*
X57815922Y-101420524D01*
X57815921Y-101420523D01*
X57771359Y-101388147D01*
X57771350Y-101388141D01*
X57589031Y-101295244D01*
X57394417Y-101232009D01*
X57192317Y-101200000D01*
X56987683Y-101200000D01*
X56785582Y-101232009D01*
X56590968Y-101295244D01*
X56408644Y-101388143D01*
X56364077Y-101420523D01*
X56364077Y-101420524D01*
X57043554Y-102100000D01*
X57037339Y-102100000D01*
X56935606Y-102127259D01*
X56844394Y-102179920D01*
X56769920Y-102254394D01*
X56717259Y-102345606D01*
X56690000Y-102447339D01*
X56690000Y-102453553D01*
X56010524Y-101774077D01*
X56010523Y-101774077D01*
X55978143Y-101818644D01*
X55885244Y-102000968D01*
X55822009Y-102195582D01*
X55790000Y-102397682D01*
X52000500Y-102397682D01*
X52000500Y-100826611D01*
X52020185Y-100759572D01*
X52072989Y-100713817D01*
X52142147Y-100703873D01*
X52205703Y-100732898D01*
X52242432Y-100788294D01*
X52248906Y-100808221D01*
X52345375Y-100997550D01*
X52384728Y-101051716D01*
X53017037Y-100419408D01*
X53034075Y-100482993D01*
X53099901Y-100597007D01*
X53192993Y-100690099D01*
X53307007Y-100755925D01*
X53370590Y-100772962D01*
X52738282Y-101405269D01*
X52738282Y-101405270D01*
X52792449Y-101444624D01*
X52981782Y-101541095D01*
X53183870Y-101606757D01*
X53393754Y-101640000D01*
X53606246Y-101640000D01*
X53816127Y-101606757D01*
X53816130Y-101606757D01*
X54018217Y-101541095D01*
X54207554Y-101444622D01*
X54261717Y-101405270D01*
X53629408Y-100772962D01*
X53692993Y-100755925D01*
X53807007Y-100690099D01*
X53900099Y-100597007D01*
X53965925Y-100482993D01*
X53982962Y-100419409D01*
X54615270Y-101051717D01*
X54615270Y-101051716D01*
X54654622Y-100997554D01*
X54751095Y-100808217D01*
X54816757Y-100606130D01*
X54816757Y-100606127D01*
X54850000Y-100396246D01*
X54850000Y-100183753D01*
X54816757Y-99973872D01*
X54816757Y-99973869D01*
X54751095Y-99771782D01*
X54654624Y-99582449D01*
X54615270Y-99528282D01*
X54615269Y-99528282D01*
X53982962Y-100160590D01*
X53965925Y-100097007D01*
X53900099Y-99982993D01*
X53807007Y-99889901D01*
X53692993Y-99824075D01*
X53629409Y-99807037D01*
X54299627Y-99136818D01*
X54360950Y-99103333D01*
X54387307Y-99100499D01*
X54397872Y-99100499D01*
X54457483Y-99094091D01*
X54592331Y-99043796D01*
X54617128Y-99025233D01*
X54682592Y-99000816D01*
X54691439Y-99000500D01*
X59348422Y-99000500D01*
X59542826Y-98969709D01*
X59569722Y-98960970D01*
X59730026Y-98908884D01*
X59905405Y-98819524D01*
X60064646Y-98703828D01*
X61481656Y-97286819D01*
X61542979Y-97253334D01*
X61569337Y-97250500D01*
X62157993Y-97250500D01*
X62196997Y-97256794D01*
X62297203Y-97289999D01*
X62399991Y-97300500D01*
X63600008Y-97300499D01*
X63702797Y-97289999D01*
X63869334Y-97234814D01*
X64018656Y-97142712D01*
X64142712Y-97018656D01*
X64234814Y-96869334D01*
X64249426Y-96825237D01*
X64289195Y-96767796D01*
X64353711Y-96740972D01*
X64422487Y-96753286D01*
X64467448Y-96791358D01*
X64508032Y-96847217D01*
X64508034Y-96847219D01*
X64652781Y-96991966D01*
X64818390Y-97112287D01*
X64852724Y-97129781D01*
X64884110Y-97152584D01*
X65963181Y-98231655D01*
X65996666Y-98292978D01*
X65999500Y-98319336D01*
X65999500Y-102120498D01*
X65993431Y-102158816D01*
X65981523Y-102195464D01*
X65949500Y-102397648D01*
X65949500Y-102602351D01*
X65981522Y-102804534D01*
X66044781Y-102999223D01*
X66108691Y-103124653D01*
X66137585Y-103181359D01*
X66137715Y-103181613D01*
X66258028Y-103347213D01*
X66402786Y-103491971D01*
X66518377Y-103575951D01*
X66568390Y-103612287D01*
X66684607Y-103671503D01*
X66750776Y-103705218D01*
X66750778Y-103705218D01*
X66750781Y-103705220D01*
X66945466Y-103768477D01*
X67114885Y-103795310D01*
X67178018Y-103825239D01*
X67214950Y-103884550D01*
X67213952Y-103954413D01*
X67183169Y-104005462D01*
X67167051Y-104021580D01*
X67167047Y-104021585D01*
X67117812Y-104095271D01*
X67084921Y-104144496D01*
X67084914Y-104144508D01*
X67028342Y-104281086D01*
X67028340Y-104281092D01*
X66999500Y-104426079D01*
X66999500Y-104426082D01*
X66999500Y-112823918D01*
X66999500Y-112823920D01*
X66999499Y-112823920D01*
X67028340Y-112968907D01*
X67028343Y-112968917D01*
X67068740Y-113066445D01*
X67076209Y-113135914D01*
X67044933Y-113198393D01*
X66984844Y-113234045D01*
X66915019Y-113231551D01*
X66866498Y-113201578D01*
X65983031Y-112318111D01*
X65949546Y-112256788D01*
X65950936Y-112198338D01*
X65966270Y-112141116D01*
X66000500Y-111881120D01*
X66000500Y-111618880D01*
X65966270Y-111358884D01*
X65898398Y-111105581D01*
X65862110Y-111017974D01*
X65798046Y-110863309D01*
X65798041Y-110863299D01*
X65666924Y-110636196D01*
X65524059Y-110450013D01*
X65507282Y-110428149D01*
X65507281Y-110428148D01*
X65507274Y-110428140D01*
X65321860Y-110242726D01*
X65321851Y-110242718D01*
X65113803Y-110083075D01*
X64886700Y-109951958D01*
X64886690Y-109951953D01*
X64644428Y-109851605D01*
X64644421Y-109851603D01*
X64644419Y-109851602D01*
X64391116Y-109783730D01*
X64333339Y-109776123D01*
X64131127Y-109749500D01*
X64131120Y-109749500D01*
X63868880Y-109749500D01*
X63868872Y-109749500D01*
X63637772Y-109779926D01*
X63608884Y-109783730D01*
X63372002Y-109847202D01*
X63355581Y-109851602D01*
X63355571Y-109851605D01*
X63113309Y-109951953D01*
X63113299Y-109951958D01*
X62886196Y-110083075D01*
X62678148Y-110242718D01*
X62492718Y-110428148D01*
X62333075Y-110636196D01*
X62201958Y-110863299D01*
X62201953Y-110863309D01*
X62101605Y-111105571D01*
X62101602Y-111105581D01*
X62036534Y-111348422D01*
X62033730Y-111358885D01*
X61999500Y-111618872D01*
X61999500Y-111881127D01*
X62018332Y-112024158D01*
X62033730Y-112141116D01*
X62101602Y-112394418D01*
X62101605Y-112394428D01*
X62201953Y-112636690D01*
X62201958Y-112636700D01*
X62333075Y-112863803D01*
X62492718Y-113071851D01*
X62492726Y-113071860D01*
X62678140Y-113257274D01*
X62678148Y-113257281D01*
X62886196Y-113416924D01*
X63113299Y-113548041D01*
X63113309Y-113548046D01*
X63355571Y-113648394D01*
X63355581Y-113648398D01*
X63608884Y-113716270D01*
X63857188Y-113748960D01*
X63865074Y-113749999D01*
X63868880Y-113750500D01*
X63868887Y-113750500D01*
X64131113Y-113750500D01*
X64131120Y-113750500D01*
X64391116Y-113716270D01*
X64448338Y-113700937D01*
X64518186Y-113702600D01*
X64568111Y-113733031D01*
X67713181Y-116878101D01*
X67746666Y-116939424D01*
X67749500Y-116965782D01*
X67749500Y-118574781D01*
X67729815Y-118641820D01*
X67690597Y-118680319D01*
X67606347Y-118732285D01*
X67606343Y-118732288D01*
X67482289Y-118856342D01*
X67390187Y-119005663D01*
X67390186Y-119005666D01*
X67335001Y-119172203D01*
X67335001Y-119172204D01*
X67335000Y-119172204D01*
X67324500Y-119274983D01*
X67324500Y-120725001D01*
X67324501Y-120725018D01*
X67335000Y-120827796D01*
X67335001Y-120827799D01*
X67390185Y-120994331D01*
X67390186Y-120994334D01*
X67482288Y-121143656D01*
X67606344Y-121267712D01*
X67755666Y-121359814D01*
X67922203Y-121414999D01*
X68024991Y-121425500D01*
X69475008Y-121425499D01*
X69577797Y-121414999D01*
X69744334Y-121359814D01*
X69893656Y-121267712D01*
X70017712Y-121143656D01*
X70017712Y-121143655D01*
X70022819Y-121138549D01*
X70024705Y-121140435D01*
X70071625Y-121107212D01*
X70111868Y-121100500D01*
X81166610Y-121100500D01*
X81166611Y-121100500D01*
X81337701Y-121073402D01*
X81502445Y-121019873D01*
X81656788Y-120941232D01*
X81796928Y-120839414D01*
X83288006Y-119348336D01*
X92299500Y-119348336D01*
X92299500Y-119651663D01*
X92333457Y-119953048D01*
X92333460Y-119953062D01*
X92400953Y-120248771D01*
X92400957Y-120248783D01*
X92501133Y-120535068D01*
X92632733Y-120808338D01*
X92682653Y-120887785D01*
X92794108Y-121065164D01*
X92983221Y-121302304D01*
X93197696Y-121516779D01*
X93434836Y-121705892D01*
X93691659Y-121867265D01*
X93964935Y-121998868D01*
X94179951Y-122074105D01*
X94251216Y-122099042D01*
X94251228Y-122099046D01*
X94546937Y-122166540D01*
X94546946Y-122166541D01*
X94546951Y-122166542D01*
X94747874Y-122189180D01*
X94848337Y-122200499D01*
X94848340Y-122200500D01*
X94848343Y-122200500D01*
X95151660Y-122200500D01*
X95151661Y-122200499D01*
X95305694Y-122183144D01*
X95453048Y-122166542D01*
X95453051Y-122166541D01*
X95453063Y-122166540D01*
X95748772Y-122099046D01*
X96035065Y-121998868D01*
X96308341Y-121867265D01*
X96565164Y-121705892D01*
X96802304Y-121516779D01*
X97016779Y-121302304D01*
X97205892Y-121065164D01*
X97367265Y-120808341D01*
X97498868Y-120535065D01*
X97599046Y-120248772D01*
X97666540Y-119953063D01*
X97700500Y-119651657D01*
X97700500Y-119348343D01*
X97672332Y-119098340D01*
X97666542Y-119046951D01*
X97666541Y-119046946D01*
X97666540Y-119046937D01*
X97599046Y-118751228D01*
X97498868Y-118464935D01*
X97367265Y-118191659D01*
X97205892Y-117934836D01*
X97016779Y-117697696D01*
X96802304Y-117483221D01*
X96565164Y-117294108D01*
X96308341Y-117132735D01*
X96308338Y-117132733D01*
X96035068Y-117001133D01*
X95748783Y-116900957D01*
X95748771Y-116900953D01*
X95520556Y-116848864D01*
X95453063Y-116833460D01*
X95453060Y-116833459D01*
X95453048Y-116833457D01*
X95151663Y-116799500D01*
X95151657Y-116799500D01*
X94848343Y-116799500D01*
X94848336Y-116799500D01*
X94546951Y-116833457D01*
X94546937Y-116833460D01*
X94251228Y-116900953D01*
X94251216Y-116900957D01*
X93964931Y-117001133D01*
X93691661Y-117132733D01*
X93434837Y-117294107D01*
X93197696Y-117483220D01*
X92983220Y-117697696D01*
X92794107Y-117934837D01*
X92632733Y-118191661D01*
X92501133Y-118464931D01*
X92400957Y-118751216D01*
X92400953Y-118751228D01*
X92333460Y-119046937D01*
X92333457Y-119046951D01*
X92299500Y-119348336D01*
X83288006Y-119348336D01*
X89067023Y-113569319D01*
X89128346Y-113535834D01*
X89154704Y-113533000D01*
X89161853Y-113533000D01*
X89161854Y-113533000D01*
X89387745Y-113497222D01*
X89387748Y-113497221D01*
X89387749Y-113497221D01*
X89605255Y-113426549D01*
X89605255Y-113426548D01*
X89605258Y-113426548D01*
X89809038Y-113322717D01*
X89994066Y-113188286D01*
X90155786Y-113026566D01*
X90290217Y-112841538D01*
X90394048Y-112637758D01*
X90394395Y-112636690D01*
X90464721Y-112420249D01*
X90464721Y-112420248D01*
X90464722Y-112420245D01*
X90500500Y-112194354D01*
X90500500Y-111965646D01*
X90464722Y-111739755D01*
X90464721Y-111739751D01*
X90464721Y-111739750D01*
X90394049Y-111522244D01*
X90322146Y-111381127D01*
X90290217Y-111318462D01*
X90155786Y-111133434D01*
X89994066Y-110971714D01*
X89909559Y-110910316D01*
X89866896Y-110854988D01*
X89860917Y-110785375D01*
X89893523Y-110723580D01*
X89909556Y-110709685D01*
X89994066Y-110648286D01*
X90155786Y-110486566D01*
X90290217Y-110301538D01*
X90394048Y-110097758D01*
X90441421Y-109951958D01*
X90464721Y-109880249D01*
X90464721Y-109880248D01*
X90464722Y-109880245D01*
X90500500Y-109654354D01*
X90500500Y-109425646D01*
X90493732Y-109382914D01*
X90464722Y-109199752D01*
X90464721Y-109199750D01*
X90394049Y-108982244D01*
X90394048Y-108982242D01*
X90290217Y-108778462D01*
X90157472Y-108595755D01*
X90133994Y-108529953D01*
X90149819Y-108461899D01*
X90199925Y-108413204D01*
X90214455Y-108406692D01*
X90242331Y-108396296D01*
X90357546Y-108310046D01*
X90443796Y-108194831D01*
X90494091Y-108059983D01*
X90500500Y-108000373D01*
X90500499Y-105999628D01*
X90494091Y-105940017D01*
X90454764Y-105834577D01*
X90443796Y-105805169D01*
X90443793Y-105805164D01*
X90357547Y-105689955D01*
X90357544Y-105689952D01*
X90242335Y-105603706D01*
X90242328Y-105603702D01*
X90107482Y-105553408D01*
X90107483Y-105553408D01*
X90047883Y-105547001D01*
X90047881Y-105547000D01*
X90047873Y-105547000D01*
X90047864Y-105547000D01*
X87952129Y-105547000D01*
X87952123Y-105547001D01*
X87892516Y-105553408D01*
X87757671Y-105603702D01*
X87757664Y-105603706D01*
X87642455Y-105689952D01*
X87642452Y-105689955D01*
X87556206Y-105805164D01*
X87556204Y-105805169D01*
X87505908Y-105940017D01*
X87499501Y-105999616D01*
X87499501Y-105999623D01*
X87499500Y-105999635D01*
X87499500Y-108000370D01*
X87499501Y-108000376D01*
X87505908Y-108059983D01*
X87556202Y-108194828D01*
X87556206Y-108194835D01*
X87642452Y-108310044D01*
X87642455Y-108310047D01*
X87757664Y-108396293D01*
X87757669Y-108396296D01*
X87785539Y-108406690D01*
X87841473Y-108448561D01*
X87865891Y-108514024D01*
X87851040Y-108582298D01*
X87842525Y-108595759D01*
X87738900Y-108738386D01*
X87683570Y-108781051D01*
X87638582Y-108789500D01*
X86020515Y-108789500D01*
X85973061Y-108780060D01*
X85968913Y-108778342D01*
X85968907Y-108778340D01*
X85823920Y-108749500D01*
X85823918Y-108749500D01*
X84676082Y-108749500D01*
X84676076Y-108749500D01*
X84647242Y-108755234D01*
X84647243Y-108755235D01*
X84531093Y-108778339D01*
X84531083Y-108778342D01*
X84451081Y-108811479D01*
X84451082Y-108811480D01*
X84394502Y-108834917D01*
X84345270Y-108867811D01*
X84345271Y-108867812D01*
X84271581Y-108917049D01*
X83839201Y-109349429D01*
X83777878Y-109382914D01*
X83708186Y-109377930D01*
X83704067Y-109376309D01*
X83644428Y-109351605D01*
X83644421Y-109351603D01*
X83644419Y-109351602D01*
X83391116Y-109283730D01*
X83333339Y-109276123D01*
X83131127Y-109249500D01*
X83131120Y-109249500D01*
X82868880Y-109249500D01*
X82868872Y-109249500D01*
X82637772Y-109279926D01*
X82608884Y-109283730D01*
X82363691Y-109349429D01*
X82355581Y-109351602D01*
X82355571Y-109351605D01*
X82113309Y-109451953D01*
X82113299Y-109451958D01*
X81886196Y-109583075D01*
X81678148Y-109742718D01*
X81492718Y-109928148D01*
X81333083Y-110136186D01*
X81333072Y-110136203D01*
X81293892Y-110204063D01*
X81259392Y-110242378D01*
X81185362Y-110296164D01*
X81185354Y-110296171D01*
X81046174Y-110435351D01*
X81046174Y-110435352D01*
X81046172Y-110435354D01*
X81008963Y-110486568D01*
X80930476Y-110594594D01*
X80841117Y-110769969D01*
X80780290Y-110957173D01*
X80749500Y-111151577D01*
X80749500Y-111348422D01*
X80780290Y-111542826D01*
X80841117Y-111730030D01*
X80890028Y-111826022D01*
X80924878Y-111894419D01*
X80930478Y-111905408D01*
X81016666Y-112024036D01*
X81040146Y-112089842D01*
X81024321Y-112157896D01*
X81004029Y-112184602D01*
X78845451Y-114343181D01*
X78784128Y-114376666D01*
X78757770Y-114379500D01*
X70492229Y-114379500D01*
X70425190Y-114359815D01*
X70404548Y-114343181D01*
X68536819Y-112475451D01*
X68503334Y-112414128D01*
X68500500Y-112387770D01*
X68500500Y-104862229D01*
X68520185Y-104795190D01*
X68536819Y-104774548D01*
X70712948Y-102598419D01*
X70712951Y-102598416D01*
X70795084Y-102475495D01*
X70851658Y-102338913D01*
X70880192Y-102195466D01*
X70880500Y-102193920D01*
X70880500Y-101133632D01*
X70900185Y-101066593D01*
X70952989Y-101020838D01*
X70966168Y-101015706D01*
X71029219Y-100995220D01*
X71211610Y-100902287D01*
X71341082Y-100808221D01*
X71377213Y-100781971D01*
X71377215Y-100781968D01*
X71377219Y-100781966D01*
X71521966Y-100637219D01*
X71521968Y-100637215D01*
X71521971Y-100637213D01*
X71574732Y-100564590D01*
X71642287Y-100471610D01*
X71735220Y-100289219D01*
X71798477Y-100094534D01*
X71820874Y-99953117D01*
X71850803Y-99889985D01*
X71855648Y-99884854D01*
X73107139Y-98633366D01*
X73140933Y-98582790D01*
X73167919Y-98542403D01*
X73167919Y-98542402D01*
X73182764Y-98520185D01*
X73216632Y-98469498D01*
X73261040Y-98362287D01*
X73278753Y-98319525D01*
X73292049Y-98287424D01*
X73292051Y-98287420D01*
X73330500Y-98094125D01*
X73330500Y-97897044D01*
X73330500Y-91420416D01*
X73350185Y-91353377D01*
X73402989Y-91307622D01*
X73472147Y-91297678D01*
X73535703Y-91326703D01*
X73542181Y-91332735D01*
X74463181Y-92253735D01*
X74496666Y-92315058D01*
X74499500Y-92341416D01*
X74499500Y-96535389D01*
X74479815Y-96602428D01*
X74474763Y-96609370D01*
X74363371Y-96776080D01*
X74363364Y-96776093D01*
X74336793Y-96840244D01*
X74293210Y-96945465D01*
X74289169Y-96955220D01*
X74287949Y-96958165D01*
X74287948Y-96958168D01*
X74287946Y-96958175D01*
X74249500Y-97151454D01*
X74249500Y-97151459D01*
X74249500Y-97348541D01*
X74249500Y-97348543D01*
X74249499Y-97348543D01*
X74260050Y-97401580D01*
X74260050Y-97401581D01*
X74274438Y-97473913D01*
X74274438Y-97473914D01*
X74287946Y-97541828D01*
X74287949Y-97541837D01*
X74363364Y-97723907D01*
X74363371Y-97723920D01*
X74472860Y-97887781D01*
X74472863Y-97887785D01*
X74612214Y-98027136D01*
X74612218Y-98027139D01*
X74776079Y-98136628D01*
X74776092Y-98136635D01*
X74904833Y-98189961D01*
X74958159Y-98212049D01*
X74958164Y-98212051D01*
X75048525Y-98230025D01*
X75056720Y-98231655D01*
X75151456Y-98250500D01*
X75151459Y-98250500D01*
X75151460Y-98250500D01*
X75348540Y-98250500D01*
X76474238Y-98250500D01*
X76541277Y-98270185D01*
X76547119Y-98274179D01*
X76668390Y-98362287D01*
X76740424Y-98398990D01*
X76761629Y-98409795D01*
X76812425Y-98457770D01*
X76829220Y-98525591D01*
X76806682Y-98591726D01*
X76761629Y-98630765D01*
X76668650Y-98678140D01*
X76503105Y-98798417D01*
X76503104Y-98798417D01*
X76358417Y-98943104D01*
X76358417Y-98943105D01*
X76238140Y-99108650D01*
X76145244Y-99290970D01*
X76082009Y-99485586D01*
X76073391Y-99540000D01*
X77434314Y-99540000D01*
X77429920Y-99544394D01*
X77377259Y-99635606D01*
X77350000Y-99737339D01*
X77350000Y-99842661D01*
X77377259Y-99944394D01*
X77429920Y-100035606D01*
X77434314Y-100040000D01*
X76073391Y-100040000D01*
X76082009Y-100094413D01*
X76145244Y-100289029D01*
X76238140Y-100471349D01*
X76358417Y-100636894D01*
X76358417Y-100636895D01*
X76503104Y-100781582D01*
X76668650Y-100901859D01*
X76850968Y-100994755D01*
X77045582Y-101057990D01*
X77247683Y-101090000D01*
X77500000Y-101090000D01*
X77500000Y-100105686D01*
X77504394Y-100110080D01*
X77595606Y-100162741D01*
X77697339Y-100190000D01*
X77802661Y-100190000D01*
X77904394Y-100162741D01*
X77995606Y-100110080D01*
X78000000Y-100105686D01*
X78000000Y-101090000D01*
X78252317Y-101090000D01*
X78454417Y-101057990D01*
X78649031Y-100994755D01*
X78831349Y-100901859D01*
X78996894Y-100781582D01*
X78996895Y-100781582D01*
X79141582Y-100636895D01*
X79141582Y-100636894D01*
X79261859Y-100471349D01*
X79354755Y-100289029D01*
X79417990Y-100094413D01*
X79426609Y-100040000D01*
X78065686Y-100040000D01*
X78070080Y-100035606D01*
X78122741Y-99944394D01*
X78150000Y-99842661D01*
X78150000Y-99737339D01*
X78122741Y-99635606D01*
X78070080Y-99544394D01*
X78065686Y-99540000D01*
X79426609Y-99540000D01*
X79417990Y-99485586D01*
X79354755Y-99290970D01*
X79261859Y-99108650D01*
X79141582Y-98943105D01*
X79141582Y-98943104D01*
X78996895Y-98798417D01*
X78831349Y-98678140D01*
X78738370Y-98630765D01*
X78687574Y-98582790D01*
X78670779Y-98514969D01*
X78693316Y-98448835D01*
X78738370Y-98409795D01*
X78831610Y-98362287D01*
X78852770Y-98346913D01*
X78997213Y-98241971D01*
X78997215Y-98241968D01*
X78997219Y-98241966D01*
X79141966Y-98097219D01*
X79141968Y-98097215D01*
X79141971Y-98097213D01*
X79225927Y-97981655D01*
X79262287Y-97931610D01*
X79355220Y-97749219D01*
X79418477Y-97554534D01*
X79450500Y-97352352D01*
X79450500Y-97147648D01*
X79433513Y-97040395D01*
X79418477Y-96945465D01*
X79384287Y-96840241D01*
X79355220Y-96750781D01*
X79355218Y-96750778D01*
X79355218Y-96750776D01*
X79295823Y-96634208D01*
X79262287Y-96568390D01*
X79238311Y-96535389D01*
X79141971Y-96402786D01*
X78997219Y-96258034D01*
X78896446Y-96184819D01*
X78853780Y-96129489D01*
X78847801Y-96059875D01*
X78880406Y-95998080D01*
X78941245Y-95963723D01*
X78969331Y-95960500D01*
X79948422Y-95960500D01*
X80142826Y-95929709D01*
X80330026Y-95868884D01*
X80505405Y-95779524D01*
X80664646Y-95663828D01*
X81034048Y-95294425D01*
X81095369Y-95260942D01*
X81165060Y-95265926D01*
X81220994Y-95307797D01*
X81245411Y-95373262D01*
X81239659Y-95420424D01*
X81231522Y-95445466D01*
X81205979Y-95606741D01*
X81199500Y-95647648D01*
X81199500Y-95852352D01*
X81203878Y-95879995D01*
X81231522Y-96054534D01*
X81294781Y-96249223D01*
X81299271Y-96258034D01*
X81373026Y-96402786D01*
X81387715Y-96431613D01*
X81508028Y-96597213D01*
X81652782Y-96741967D01*
X81652787Y-96741971D01*
X81708640Y-96782551D01*
X81751306Y-96837881D01*
X81757285Y-96907494D01*
X81724679Y-96969289D01*
X81674761Y-97000574D01*
X81630669Y-97015185D01*
X81630666Y-97015186D01*
X81630663Y-97015187D01*
X81481342Y-97107289D01*
X81357289Y-97231342D01*
X81265187Y-97380663D01*
X81265186Y-97380666D01*
X81210001Y-97547203D01*
X81210001Y-97547204D01*
X81210000Y-97547204D01*
X81199500Y-97649983D01*
X81199500Y-98850001D01*
X81199501Y-98850018D01*
X81210000Y-98952796D01*
X81210001Y-98952799D01*
X81261646Y-99108650D01*
X81265186Y-99119334D01*
X81357288Y-99268656D01*
X81481344Y-99392712D01*
X81630666Y-99484814D01*
X81797203Y-99539999D01*
X81899991Y-99550500D01*
X83100008Y-99550499D01*
X83202797Y-99539999D01*
X83369334Y-99484814D01*
X83518656Y-99392712D01*
X83642712Y-99268656D01*
X83734814Y-99119334D01*
X83789999Y-98952797D01*
X83800500Y-98850009D01*
X83800499Y-97649992D01*
X83789999Y-97547203D01*
X83734814Y-97380666D01*
X83642712Y-97231344D01*
X83518656Y-97107288D01*
X83377095Y-97019973D01*
X83369336Y-97015187D01*
X83369331Y-97015185D01*
X83368561Y-97014930D01*
X83325239Y-97000574D01*
X83267795Y-96960802D01*
X83240972Y-96896286D01*
X83253287Y-96827510D01*
X83291359Y-96782550D01*
X83347219Y-96741966D01*
X83491966Y-96597219D01*
X83491968Y-96597215D01*
X83491971Y-96597213D01*
X83577264Y-96479815D01*
X83612287Y-96431610D01*
X83705220Y-96249219D01*
X83768477Y-96054534D01*
X83800500Y-95852352D01*
X83800500Y-95647648D01*
X83794020Y-95606739D01*
X83802974Y-95537447D01*
X83828809Y-95499663D01*
X85981655Y-93346819D01*
X86042978Y-93313334D01*
X86069336Y-93310500D01*
X86530664Y-93310500D01*
X86597703Y-93330185D01*
X86618345Y-93346819D01*
X87463181Y-94191656D01*
X87496666Y-94252979D01*
X87499500Y-94279337D01*
X87499500Y-94960370D01*
X87499501Y-94960376D01*
X87505908Y-95019983D01*
X87529102Y-95082167D01*
X87534086Y-95151858D01*
X87500601Y-95213182D01*
X87439278Y-95246666D01*
X87412920Y-95249500D01*
X86901578Y-95249500D01*
X86771859Y-95270046D01*
X86771858Y-95270046D01*
X86707174Y-95280290D01*
X86707173Y-95280290D01*
X86519970Y-95341117D01*
X86344594Y-95430476D01*
X86263279Y-95489556D01*
X86185355Y-95546171D01*
X86185353Y-95546173D01*
X86185352Y-95546173D01*
X85046174Y-96685351D01*
X85046174Y-96685352D01*
X85046172Y-96685354D01*
X85005041Y-96741966D01*
X84930476Y-96844594D01*
X84841115Y-97019973D01*
X84841114Y-97019976D01*
X84792482Y-97169654D01*
X84780291Y-97207172D01*
X84780290Y-97207177D01*
X84749500Y-97401577D01*
X84749500Y-99930663D01*
X84729815Y-99997702D01*
X84713181Y-100018344D01*
X83768345Y-100963181D01*
X83707022Y-100996666D01*
X83680664Y-100999500D01*
X81901578Y-100999500D01*
X81707173Y-101030290D01*
X81519969Y-101091117D01*
X81344594Y-101180476D01*
X81273666Y-101232009D01*
X81185354Y-101296172D01*
X81185352Y-101296174D01*
X81185351Y-101296174D01*
X73268345Y-109213181D01*
X73207022Y-109246666D01*
X73180664Y-109249500D01*
X71699982Y-109249500D01*
X71597203Y-109260000D01*
X71597202Y-109260001D01*
X71525593Y-109283730D01*
X71430667Y-109315185D01*
X71430662Y-109315187D01*
X71281342Y-109407289D01*
X71157289Y-109531342D01*
X71065187Y-109680662D01*
X71065186Y-109680665D01*
X71010001Y-109847202D01*
X71010001Y-109847203D01*
X71010000Y-109847203D01*
X70999500Y-109949982D01*
X70999500Y-112550017D01*
X71010000Y-112652796D01*
X71065185Y-112819332D01*
X71065187Y-112819337D01*
X71071714Y-112829919D01*
X71157288Y-112968656D01*
X71281344Y-113092712D01*
X71430665Y-113184814D01*
X71597202Y-113239999D01*
X71699990Y-113250500D01*
X71699995Y-113250500D01*
X74300005Y-113250500D01*
X74300010Y-113250500D01*
X74402798Y-113239999D01*
X74569335Y-113184814D01*
X74718656Y-113092712D01*
X74842712Y-112968656D01*
X74934814Y-112819335D01*
X74989999Y-112652798D01*
X75000500Y-112550010D01*
X75000500Y-111118905D01*
X76000000Y-111118905D01*
X76000000Y-111381094D01*
X76034220Y-111641009D01*
X76034222Y-111641020D01*
X76102075Y-111894255D01*
X76202404Y-112136471D01*
X76202409Y-112136482D01*
X76333488Y-112363516D01*
X76333494Y-112363524D01*
X76420080Y-112476365D01*
X77398958Y-111497487D01*
X77423978Y-111557890D01*
X77495112Y-111664351D01*
X77585649Y-111754888D01*
X77692110Y-111826022D01*
X77752511Y-111851041D01*
X76773633Y-112829917D01*
X76773633Y-112829918D01*
X76886475Y-112916505D01*
X76886483Y-112916511D01*
X77113517Y-113047590D01*
X77113528Y-113047595D01*
X77355744Y-113147924D01*
X77608979Y-113215777D01*
X77608990Y-113215779D01*
X77868905Y-113249999D01*
X77868920Y-113250000D01*
X78131080Y-113250000D01*
X78131094Y-113249999D01*
X78391009Y-113215779D01*
X78391020Y-113215777D01*
X78644255Y-113147924D01*
X78886471Y-113047595D01*
X78886482Y-113047590D01*
X79113516Y-112916511D01*
X79113534Y-112916499D01*
X79226365Y-112829919D01*
X79226365Y-112829917D01*
X78247488Y-111851041D01*
X78307890Y-111826022D01*
X78414351Y-111754888D01*
X78504888Y-111664351D01*
X78576022Y-111557890D01*
X78601041Y-111497489D01*
X79579917Y-112476365D01*
X79579919Y-112476365D01*
X79666499Y-112363534D01*
X79666511Y-112363516D01*
X79797590Y-112136482D01*
X79797595Y-112136471D01*
X79897924Y-111894255D01*
X79965777Y-111641020D01*
X79965779Y-111641009D01*
X79999999Y-111381094D01*
X80000000Y-111381080D01*
X80000000Y-111118919D01*
X79999999Y-111118905D01*
X79965779Y-110858990D01*
X79965777Y-110858979D01*
X79897924Y-110605744D01*
X79797595Y-110363528D01*
X79797590Y-110363517D01*
X79666511Y-110136483D01*
X79666505Y-110136475D01*
X79579918Y-110023633D01*
X79579917Y-110023633D01*
X78601041Y-111002510D01*
X78576022Y-110942110D01*
X78504888Y-110835649D01*
X78414351Y-110745112D01*
X78307890Y-110673978D01*
X78247487Y-110648957D01*
X79226365Y-109670080D01*
X79113524Y-109583494D01*
X79113516Y-109583488D01*
X78886482Y-109452409D01*
X78886471Y-109452404D01*
X78644255Y-109352075D01*
X78391020Y-109284222D01*
X78391009Y-109284220D01*
X78131094Y-109250000D01*
X77868905Y-109250000D01*
X77608990Y-109284220D01*
X77608979Y-109284222D01*
X77355744Y-109352075D01*
X77113528Y-109452404D01*
X77113517Y-109452409D01*
X76886471Y-109583496D01*
X76773633Y-109670079D01*
X76773633Y-109670080D01*
X77752511Y-110648958D01*
X77692110Y-110673978D01*
X77585649Y-110745112D01*
X77495112Y-110835649D01*
X77423978Y-110942110D01*
X77398958Y-111002511D01*
X76420080Y-110023633D01*
X76420079Y-110023633D01*
X76333496Y-110136471D01*
X76202409Y-110363517D01*
X76202404Y-110363528D01*
X76102075Y-110605744D01*
X76034222Y-110858979D01*
X76034220Y-110858990D01*
X76000000Y-111118905D01*
X75000500Y-111118905D01*
X75000500Y-111069336D01*
X75020185Y-111002297D01*
X75036819Y-110981655D01*
X82481655Y-103536819D01*
X82542978Y-103503334D01*
X82569336Y-103500500D01*
X84348422Y-103500500D01*
X84542826Y-103469709D01*
X84730026Y-103408884D01*
X84905405Y-103319524D01*
X85064646Y-103203828D01*
X86953829Y-101314646D01*
X87069524Y-101155405D01*
X87158884Y-100980026D01*
X87219709Y-100792826D01*
X87224976Y-100759572D01*
X87250500Y-100598421D01*
X87250500Y-98069336D01*
X87270185Y-98002297D01*
X87286819Y-97981655D01*
X87481655Y-97786819D01*
X87542978Y-97753334D01*
X87569336Y-97750500D01*
X87887786Y-97750500D01*
X87954825Y-97770185D01*
X88000580Y-97822989D01*
X88010524Y-97892147D01*
X87981499Y-97955703D01*
X87975467Y-97962181D01*
X87844216Y-98093431D01*
X87844216Y-98093432D01*
X87844214Y-98093434D01*
X87812832Y-98136628D01*
X87709783Y-98278461D01*
X87605950Y-98482244D01*
X87535278Y-98699750D01*
X87535278Y-98699753D01*
X87499500Y-98925646D01*
X87499500Y-99154353D01*
X87535278Y-99380246D01*
X87535278Y-99380249D01*
X87605950Y-99597755D01*
X87677072Y-99737339D01*
X87709783Y-99801538D01*
X87844214Y-99986566D01*
X88005934Y-100148286D01*
X88190962Y-100282717D01*
X88334447Y-100355826D01*
X88394744Y-100386549D01*
X88612251Y-100457221D01*
X88612252Y-100457221D01*
X88612255Y-100457222D01*
X88838146Y-100493000D01*
X88838147Y-100493000D01*
X89161853Y-100493000D01*
X89161854Y-100493000D01*
X89387745Y-100457222D01*
X89387748Y-100457221D01*
X89387749Y-100457221D01*
X89605255Y-100386549D01*
X89605255Y-100386548D01*
X89605258Y-100386548D01*
X89809038Y-100282717D01*
X89994066Y-100148286D01*
X90155786Y-99986566D01*
X90290217Y-99801538D01*
X90394048Y-99597758D01*
X90435585Y-99469920D01*
X90464721Y-99380249D01*
X90464721Y-99380248D01*
X90464722Y-99380245D01*
X90500500Y-99154354D01*
X90500500Y-99149097D01*
X90520185Y-99082058D01*
X90572989Y-99036303D01*
X90642147Y-99026359D01*
X90705703Y-99055384D01*
X90712181Y-99061416D01*
X92088181Y-100437416D01*
X92121666Y-100498739D01*
X92124500Y-100525097D01*
X92124500Y-104697340D01*
X92124499Y-104697358D01*
X92124499Y-104863064D01*
X92124498Y-104863064D01*
X92124499Y-104863067D01*
X92165423Y-105015795D01*
X92165424Y-105015796D01*
X92166532Y-105017715D01*
X92166535Y-105017721D01*
X92244477Y-105152722D01*
X92244479Y-105152725D01*
X92244480Y-105152726D01*
X92356284Y-105264530D01*
X92356285Y-105264531D01*
X92847274Y-105755520D01*
X92847276Y-105755521D01*
X92847280Y-105755524D01*
X92984199Y-105834573D01*
X92984202Y-105834575D01*
X92984206Y-105834577D01*
X93136933Y-105875501D01*
X93136935Y-105875501D01*
X93302644Y-105875501D01*
X93302660Y-105875500D01*
X95197341Y-105875500D01*
X95197357Y-105875501D01*
X95204953Y-105875501D01*
X95363064Y-105875501D01*
X95363067Y-105875501D01*
X95515795Y-105834577D01*
X95566731Y-105805169D01*
X95566732Y-105805169D01*
X95652719Y-105755524D01*
X95652718Y-105755524D01*
X95652726Y-105755520D01*
X95764530Y-105643716D01*
X95764530Y-105643714D01*
X95774734Y-105633511D01*
X95774738Y-105633506D01*
X97118713Y-104289531D01*
X97118716Y-104289530D01*
X97230520Y-104177726D01*
X97280639Y-104090914D01*
X97309577Y-104040795D01*
X97350501Y-103888067D01*
X97350501Y-103729953D01*
X97350501Y-103722358D01*
X97350500Y-103722340D01*
X97350500Y-92930997D01*
X97350499Y-92930990D01*
X97349133Y-92925894D01*
X97349130Y-92925883D01*
X97325498Y-92837686D01*
X97309576Y-92778265D01*
X97309573Y-92778260D01*
X97230524Y-92641341D01*
X97230521Y-92641337D01*
X97230520Y-92641335D01*
X97118716Y-92529531D01*
X97118715Y-92529530D01*
X97114385Y-92525200D01*
X97114374Y-92525190D01*
X83937520Y-79348336D01*
X92549500Y-79348336D01*
X92549500Y-79651663D01*
X92583457Y-79953048D01*
X92583460Y-79953062D01*
X92650953Y-80248771D01*
X92650957Y-80248783D01*
X92751133Y-80535068D01*
X92882733Y-80808338D01*
X92882735Y-80808341D01*
X93044108Y-81065164D01*
X93233221Y-81302304D01*
X93447696Y-81516779D01*
X93684836Y-81705892D01*
X93941659Y-81867265D01*
X94214935Y-81998868D01*
X94429951Y-82074105D01*
X94501216Y-82099042D01*
X94501228Y-82099046D01*
X94796937Y-82166540D01*
X94796946Y-82166541D01*
X94796951Y-82166542D01*
X94997874Y-82189180D01*
X95098337Y-82200499D01*
X95098340Y-82200500D01*
X95098343Y-82200500D01*
X95401660Y-82200500D01*
X95401661Y-82200499D01*
X95555694Y-82183144D01*
X95703048Y-82166542D01*
X95703051Y-82166541D01*
X95703063Y-82166540D01*
X95998772Y-82099046D01*
X96285065Y-81998868D01*
X96558341Y-81867265D01*
X96815164Y-81705892D01*
X97052304Y-81516779D01*
X97266779Y-81302304D01*
X97455892Y-81065164D01*
X97617265Y-80808341D01*
X97748868Y-80535065D01*
X97849046Y-80248772D01*
X97916540Y-79953063D01*
X97922206Y-79902781D01*
X97939476Y-79749500D01*
X97950500Y-79651657D01*
X97950500Y-79348343D01*
X97922332Y-79098343D01*
X97916542Y-79046951D01*
X97916541Y-79046946D01*
X97916540Y-79046937D01*
X97849046Y-78751228D01*
X97848441Y-78749500D01*
X97798946Y-78608050D01*
X97748868Y-78464935D01*
X97617265Y-78191659D01*
X97455892Y-77934836D01*
X97266779Y-77697696D01*
X97052304Y-77483221D01*
X96815164Y-77294108D01*
X96558341Y-77132735D01*
X96558338Y-77132733D01*
X96285068Y-77001133D01*
X95998783Y-76900957D01*
X95998771Y-76900953D01*
X95770556Y-76848864D01*
X95703063Y-76833460D01*
X95703060Y-76833459D01*
X95703048Y-76833457D01*
X95401663Y-76799500D01*
X95401657Y-76799500D01*
X95098343Y-76799500D01*
X95098336Y-76799500D01*
X94796951Y-76833457D01*
X94796937Y-76833460D01*
X94501228Y-76900953D01*
X94501216Y-76900957D01*
X94214931Y-77001133D01*
X93941661Y-77132733D01*
X93684837Y-77294107D01*
X93447696Y-77483220D01*
X93233220Y-77697696D01*
X93044107Y-77934837D01*
X92882733Y-78191661D01*
X92751133Y-78464931D01*
X92650957Y-78751216D01*
X92650953Y-78751228D01*
X92583460Y-79046937D01*
X92583457Y-79046951D01*
X92549500Y-79348336D01*
X83937520Y-79348336D01*
X83577539Y-78988355D01*
X83577537Y-78988352D01*
X83458666Y-78869481D01*
X83458658Y-78869475D01*
X83333017Y-78796937D01*
X83333014Y-78796936D01*
X83321734Y-78790423D01*
X83169006Y-78749499D01*
X83010892Y-78749499D01*
X83003296Y-78749499D01*
X83003280Y-78749500D01*
X78341043Y-78749500D01*
X78188316Y-78790423D01*
X78177036Y-78796936D01*
X78177033Y-78796937D01*
X78051391Y-78869475D01*
X78051383Y-78869481D01*
X73119481Y-83801383D01*
X73119477Y-83801388D01*
X73069639Y-83887712D01*
X73069639Y-83887713D01*
X73040423Y-83938315D01*
X73040423Y-83938316D01*
X72999499Y-84091044D01*
X72999499Y-84091046D01*
X72999499Y-84259147D01*
X72999500Y-84259160D01*
X72999500Y-86535217D01*
X72979815Y-86602256D01*
X72927011Y-86648011D01*
X72857853Y-86657955D01*
X72794297Y-86628930D01*
X72787819Y-86622898D01*
X70534209Y-84369289D01*
X70534206Y-84369285D01*
X70534206Y-84369286D01*
X70527139Y-84362219D01*
X70527139Y-84362218D01*
X70387782Y-84222861D01*
X70387781Y-84222860D01*
X70387780Y-84222859D01*
X70223920Y-84113371D01*
X70223911Y-84113366D01*
X70102382Y-84063027D01*
X70102379Y-84063026D01*
X70095165Y-84060038D01*
X70041836Y-84037949D01*
X69931511Y-84016004D01*
X69927233Y-84015153D01*
X69927222Y-84015150D01*
X69848543Y-83999500D01*
X69848541Y-83999500D01*
X67399058Y-83999500D01*
X67332019Y-83979815D01*
X67300682Y-83950986D01*
X67258644Y-83896201D01*
X67258638Y-83896194D01*
X67103805Y-83741361D01*
X67103798Y-83741355D01*
X66930070Y-83608049D01*
X66740438Y-83498565D01*
X66740433Y-83498562D01*
X66740428Y-83498560D01*
X66538117Y-83414759D01*
X66538118Y-83414759D01*
X66538115Y-83414758D01*
X66432357Y-83386421D01*
X66326598Y-83358083D01*
X66276678Y-83351510D01*
X66212783Y-83323244D01*
X66174312Y-83264920D01*
X66173481Y-83195055D01*
X66205182Y-83140893D01*
X67559258Y-81786819D01*
X67620581Y-81753334D01*
X67646939Y-81750500D01*
X70714238Y-81750500D01*
X70781277Y-81770185D01*
X70787119Y-81774179D01*
X70908390Y-81862287D01*
X71014871Y-81916542D01*
X71090776Y-81955218D01*
X71090778Y-81955218D01*
X71090781Y-81955220D01*
X71195137Y-81989127D01*
X71285465Y-82018477D01*
X71386557Y-82034488D01*
X71487648Y-82050500D01*
X71487649Y-82050500D01*
X71692351Y-82050500D01*
X71692352Y-82050500D01*
X71894534Y-82018477D01*
X72089219Y-81955220D01*
X72271610Y-81862287D01*
X72398379Y-81770185D01*
X72437213Y-81741971D01*
X72437215Y-81741968D01*
X72437219Y-81741966D01*
X72581966Y-81597219D01*
X72581968Y-81597215D01*
X72581971Y-81597213D01*
X72651553Y-81501440D01*
X72702287Y-81431610D01*
X72795220Y-81249219D01*
X72858477Y-81054534D01*
X72890500Y-80852352D01*
X72890500Y-80647648D01*
X72876355Y-80558341D01*
X72858477Y-80445465D01*
X72819854Y-80326598D01*
X72795220Y-80250781D01*
X72795218Y-80250778D01*
X72795218Y-80250776D01*
X72734084Y-80130795D01*
X72702287Y-80068390D01*
X72651707Y-79998772D01*
X72581971Y-79902786D01*
X72437213Y-79758028D01*
X72271613Y-79637715D01*
X72271612Y-79637714D01*
X72271610Y-79637713D01*
X72214653Y-79608691D01*
X72089223Y-79544781D01*
X71894534Y-79481522D01*
X71719995Y-79453878D01*
X71692352Y-79449500D01*
X71487648Y-79449500D01*
X71463329Y-79453351D01*
X71285465Y-79481522D01*
X71090776Y-79544781D01*
X70908386Y-79637715D01*
X70787123Y-79725818D01*
X70721317Y-79749298D01*
X70714238Y-79749500D01*
X67082611Y-79749500D01*
X66985968Y-79768724D01*
X66889323Y-79787947D01*
X66889317Y-79787949D01*
X66835990Y-79810037D01*
X66835990Y-79810038D01*
X66782661Y-79832127D01*
X66707243Y-79863367D01*
X66707239Y-79863369D01*
X66576840Y-79950498D01*
X66576841Y-79950499D01*
X66543372Y-79972862D01*
X66543368Y-79972865D01*
X63864779Y-82651456D01*
X63192220Y-83324015D01*
X63192218Y-83324017D01*
X63122538Y-83393696D01*
X63052859Y-83463375D01*
X62943371Y-83627235D01*
X62943364Y-83627248D01*
X62892313Y-83750500D01*
X62892313Y-83750501D01*
X62870892Y-83802216D01*
X62867949Y-83809319D01*
X62867946Y-83809329D01*
X62829500Y-84002610D01*
X62829500Y-85997388D01*
X62839769Y-86049014D01*
X62848724Y-86094032D01*
X62867949Y-86190680D01*
X62871603Y-86199501D01*
X62875507Y-86208926D01*
X62875508Y-86208930D01*
X62943364Y-86372751D01*
X62943371Y-86372764D01*
X63052859Y-86536624D01*
X63052860Y-86536625D01*
X63052861Y-86536626D01*
X63192218Y-86675983D01*
X63192219Y-86675983D01*
X63199286Y-86683050D01*
X63199285Y-86683050D01*
X63199289Y-86683053D01*
X67224054Y-90707819D01*
X67257539Y-90769142D01*
X67252555Y-90838834D01*
X67210683Y-90894767D01*
X67145219Y-90919184D01*
X67136373Y-90919500D01*
X63739336Y-90919500D01*
X63672297Y-90899815D01*
X63651655Y-90883181D01*
X52702010Y-79933536D01*
X52668525Y-79872213D01*
X52666752Y-79862041D01*
X52665847Y-79855170D01*
X52641917Y-79673402D01*
X52585241Y-79461883D01*
X52501440Y-79259572D01*
X52391950Y-79069929D01*
X52374308Y-79046937D01*
X52258644Y-78896201D01*
X52258638Y-78896194D01*
X52103805Y-78741361D01*
X52103798Y-78741355D01*
X51930070Y-78608049D01*
X51740438Y-78498565D01*
X51740433Y-78498562D01*
X51740428Y-78498560D01*
X51538117Y-78414759D01*
X51538118Y-78414759D01*
X51538115Y-78414758D01*
X51432357Y-78386421D01*
X51326598Y-78358083D01*
X51290314Y-78353306D01*
X51109497Y-78329500D01*
X51109490Y-78329500D01*
X50890510Y-78329500D01*
X50890502Y-78329500D01*
X50683853Y-78356707D01*
X50673402Y-78358083D01*
X50628699Y-78370060D01*
X50461884Y-78414758D01*
X50343374Y-78463847D01*
X50259572Y-78498560D01*
X50259569Y-78498561D01*
X50259561Y-78498565D01*
X50069929Y-78608049D01*
X49896201Y-78741355D01*
X49896194Y-78741361D01*
X49741361Y-78896194D01*
X49741353Y-78896204D01*
X49655051Y-79008674D01*
X49598623Y-79049876D01*
X49528877Y-79054031D01*
X49467957Y-79019818D01*
X49435205Y-78958101D01*
X49433456Y-78947070D01*
X49416542Y-78796950D01*
X49416540Y-78796936D01*
X49349046Y-78501228D01*
X49349042Y-78501216D01*
X49298958Y-78358084D01*
X49248868Y-78214935D01*
X49117265Y-77941659D01*
X48955892Y-77684836D01*
X48766779Y-77447696D01*
X48552304Y-77233221D01*
X48315164Y-77044108D01*
X48058341Y-76882735D01*
X48058338Y-76882733D01*
X47785068Y-76751133D01*
X47498783Y-76650957D01*
X47498771Y-76650953D01*
X47270556Y-76598864D01*
X47203063Y-76583460D01*
X47203060Y-76583459D01*
X47203048Y-76583457D01*
X46901663Y-76549500D01*
X46901657Y-76549500D01*
X46598343Y-76549500D01*
X46598336Y-76549500D01*
X46296951Y-76583457D01*
X46296937Y-76583460D01*
X46001228Y-76650953D01*
X46001216Y-76650957D01*
X45714931Y-76751133D01*
X45441661Y-76882733D01*
X45184837Y-77044107D01*
X44947696Y-77233220D01*
X44733220Y-77447696D01*
X44544107Y-77684837D01*
X44382733Y-77941661D01*
X44251133Y-78214931D01*
X44150957Y-78501216D01*
X44150953Y-78501228D01*
X44083460Y-78796936D01*
X44083457Y-78796951D01*
X44049500Y-79098336D01*
X43750500Y-79098336D01*
X43750500Y-76177572D01*
X43770185Y-76110533D01*
X43822989Y-76064778D01*
X43874500Y-76053572D01*
X98299924Y-76053572D01*
X98366963Y-76073257D01*
G37*
%TD.AperFunction*%
%TD*%
%TA.AperFunction,Conductor*%
%TO.N,Net-(D1-A)*%
G36*
X81095772Y-89525784D02*
G01*
X82601421Y-89931152D01*
X82656864Y-89963206D01*
X82660586Y-89966928D01*
X82783072Y-90089414D01*
X82923212Y-90191232D01*
X82996133Y-90228387D01*
X83077550Y-90269871D01*
X83077552Y-90269871D01*
X83077555Y-90269873D01*
X83242299Y-90323403D01*
X83389996Y-90346795D01*
X83413389Y-90350500D01*
X84142601Y-90350500D01*
X84174837Y-90354763D01*
X87478381Y-91244179D01*
X87518216Y-91263011D01*
X89184759Y-92453399D01*
X89227868Y-92508382D01*
X89234409Y-92577945D01*
X89234276Y-92578619D01*
X88765389Y-94923052D01*
X88732939Y-94984930D01*
X88673871Y-95019032D01*
X88028216Y-95180445D01*
X88032812Y-95116191D01*
X88027828Y-95046500D01*
X88027828Y-95046493D01*
X87999500Y-94916279D01*
X87999500Y-94279337D01*
X87996635Y-94225885D01*
X87993801Y-94199527D01*
X87985239Y-94146696D01*
X87935505Y-94013354D01*
X87902020Y-93952031D01*
X87816735Y-93838103D01*
X86971899Y-92993266D01*
X86932075Y-92957495D01*
X86911433Y-92940861D01*
X86868027Y-92909560D01*
X86738573Y-92850440D01*
X86671534Y-92830755D01*
X86671530Y-92830754D01*
X86530664Y-92810500D01*
X86069336Y-92810500D01*
X86015884Y-92813365D01*
X85989526Y-92816199D01*
X85936695Y-92824761D01*
X85803353Y-92874495D01*
X85742030Y-92907980D01*
X85628102Y-92993265D01*
X83475256Y-95146109D01*
X83416068Y-95217449D01*
X83390233Y-95255233D01*
X83345236Y-95336260D01*
X83307097Y-95473369D01*
X83298143Y-95542661D01*
X83298143Y-95542664D01*
X83300177Y-95684964D01*
X83300500Y-95687003D01*
X83300500Y-95813000D01*
X83280788Y-95937450D01*
X83241852Y-96057284D01*
X83184647Y-96169554D01*
X83172756Y-96185922D01*
X83172753Y-96185926D01*
X83110586Y-96271492D01*
X83021494Y-96360584D01*
X82997470Y-96378039D01*
X82909787Y-96459436D01*
X82909123Y-96460218D01*
X82764808Y-96496298D01*
X82734734Y-96500000D01*
X82122151Y-96500000D01*
X82104590Y-96477226D01*
X82002535Y-96378044D01*
X81978508Y-96360587D01*
X81889409Y-96271488D01*
X81815352Y-96169554D01*
X81758148Y-96057286D01*
X81719209Y-95937447D01*
X81699500Y-95813003D01*
X81699500Y-95686997D01*
X81699823Y-95684958D01*
X81699823Y-95684957D01*
X81722442Y-95542140D01*
X81735981Y-95480957D01*
X81741733Y-95433795D01*
X81744137Y-95337594D01*
X81713886Y-95198531D01*
X81689469Y-95133066D01*
X81689468Y-95133061D01*
X81621262Y-95008155D01*
X81520630Y-94907524D01*
X81464696Y-94865653D01*
X81339789Y-94797450D01*
X81200727Y-94767200D01*
X81131036Y-94762216D01*
X80989091Y-94772367D01*
X80855749Y-94822100D01*
X80794428Y-94855583D01*
X80794423Y-94855586D01*
X80680494Y-94940872D01*
X80338918Y-95282448D01*
X80243343Y-95351888D01*
X80138094Y-95405515D01*
X80025742Y-95442020D01*
X79909071Y-95460500D01*
X79845000Y-95460500D01*
X79712352Y-95341117D01*
X78571712Y-94314541D01*
X78535052Y-94255064D01*
X78536366Y-94185207D01*
X78544932Y-94164629D01*
X79162729Y-92990813D01*
X79172116Y-92975719D01*
X79262287Y-92851610D01*
X79355220Y-92669219D01*
X79389432Y-92563922D01*
X79397617Y-92544526D01*
X80953806Y-89587767D01*
X81002449Y-89537612D01*
X81070486Y-89521716D01*
X81095772Y-89525784D01*
G37*
%TD.AperFunction*%
%TD*%
D31*
%TO.C,REF\u002A\u002A*%
X68750000Y-120000000D03*
%TD*%
D32*
%TO.C,C3*%
X82500000Y-98250000D03*
D33*
X82500000Y-95750000D03*
%TD*%
D34*
%TO.C,.*%
X95250000Y-79500000D03*
%TD*%
D35*
%TO.C,C1*%
X63000000Y-96000000D03*
D33*
X65500000Y-96000000D03*
%TD*%
D36*
%TO.C,RV1*%
X51000000Y-90000000D03*
X66000000Y-85000000D03*
X51000000Y-80000000D03*
%TD*%
D37*
%TO.C,J2*%
X59000000Y-111750000D03*
D38*
X64000000Y-111750000D03*
%TD*%
D33*
%TO.C,R1*%
X67250000Y-102500000D03*
X57090000Y-102500000D03*
%TD*%
D37*
%TO.C,J3*%
X73000000Y-111250000D03*
D38*
X78000000Y-111250000D03*
X83000000Y-111250000D03*
%TD*%
D34*
%TO.C,.*%
X47250000Y-119250000D03*
%TD*%
D31*
%TO.C,REF\u002A\u002A*%
X53500000Y-113500000D03*
%TD*%
D33*
%TO.C,R2*%
X81750000Y-80750000D03*
X71590000Y-80750000D03*
%TD*%
D39*
%TO.C,Q1*%
X89000000Y-93960000D03*
D40*
X89000000Y-96500000D03*
X89000000Y-99040000D03*
%TD*%
D34*
%TO.C,.*%
X46750000Y-79250000D03*
%TD*%
%TO.C,.*%
X95000000Y-119500000D03*
%TD*%
D32*
%TO.C,C2*%
X79750000Y-87500000D03*
D33*
X79750000Y-85000000D03*
%TD*%
D39*
%TO.C,Q2*%
X89000000Y-107000000D03*
D40*
X89000000Y-109540000D03*
X89000000Y-112080000D03*
%TD*%
D41*
%TO.C,D1*%
X85500000Y-84440000D03*
D33*
X85500000Y-92060000D03*
%TD*%
D42*
%TO.C,U1*%
X70130000Y-92170000D03*
D43*
X70130000Y-94710000D03*
X70130000Y-97250000D03*
X70130000Y-99790000D03*
X77750000Y-99790000D03*
X77750000Y-97250000D03*
X77750000Y-94710000D03*
X77750000Y-92170000D03*
%TD*%
D31*
%TO.C,REF\u002A\u002A*%
X94250000Y-103750000D03*
%TD*%
D44*
%TO.C,J1*%
X53500000Y-97750000D03*
D45*
X53500000Y-100290000D03*
%TD*%
D46*
X53500000Y-117000000D02*
X53500000Y-113500000D01*
X53500000Y-117000000D02*
X56380000Y-120000000D01*
X68750000Y-120000000D02*
X56380000Y-120000000D01*
X89000000Y-107000000D02*
X90880000Y-107000000D01*
X94250000Y-103750000D02*
X90880000Y-107000000D01*
D47*
X70902568Y-119983666D02*
X71664473Y-119983666D01*
X71283520Y-120364619D02*
X71283520Y-119602714D01*
X72664472Y-120364619D02*
X72093044Y-120364619D01*
X72378758Y-120364619D02*
X72378758Y-119364619D01*
X72378758Y-119364619D02*
X72283520Y-119507476D01*
X72283520Y-119507476D02*
X72188282Y-119602714D01*
X72188282Y-119602714D02*
X72093044Y-119650333D01*
X73045425Y-119459857D02*
X73093044Y-119412238D01*
X73093044Y-119412238D02*
X73188282Y-119364619D01*
X73188282Y-119364619D02*
X73426377Y-119364619D01*
X73426377Y-119364619D02*
X73521615Y-119412238D01*
X73521615Y-119412238D02*
X73569234Y-119459857D01*
X73569234Y-119459857D02*
X73616853Y-119555095D01*
X73616853Y-119555095D02*
X73616853Y-119650333D01*
X73616853Y-119650333D02*
X73569234Y-119793190D01*
X73569234Y-119793190D02*
X72997806Y-120364619D01*
X72997806Y-120364619D02*
X73616853Y-120364619D01*
X73902568Y-119364619D02*
X74235901Y-120364619D01*
X74235901Y-120364619D02*
X74569234Y-119364619D01*
X81482568Y-119983666D02*
X82244473Y-119983666D01*
X83244472Y-120364619D02*
X82673044Y-120364619D01*
X82958758Y-120364619D02*
X82958758Y-119364619D01*
X82958758Y-119364619D02*
X82863520Y-119507476D01*
X82863520Y-119507476D02*
X82768282Y-119602714D01*
X82768282Y-119602714D02*
X82673044Y-119650333D01*
X83625425Y-119459857D02*
X83673044Y-119412238D01*
X83673044Y-119412238D02*
X83768282Y-119364619D01*
X83768282Y-119364619D02*
X84006377Y-119364619D01*
X84006377Y-119364619D02*
X84101615Y-119412238D01*
X84101615Y-119412238D02*
X84149234Y-119459857D01*
X84149234Y-119459857D02*
X84196853Y-119555095D01*
X84196853Y-119555095D02*
X84196853Y-119650333D01*
X84196853Y-119650333D02*
X84149234Y-119793190D01*
X84149234Y-119793190D02*
X83577806Y-120364619D01*
X83577806Y-120364619D02*
X84196853Y-120364619D01*
X84482568Y-119364619D02*
X84815901Y-120364619D01*
X84815901Y-120364619D02*
X85149234Y-119364619D01*
D48*
X57669016Y-121303461D02*
X57564254Y-121251080D01*
X57564254Y-121251080D02*
X57407111Y-121251080D01*
X57407111Y-121251080D02*
X57249968Y-121303461D01*
X57249968Y-121303461D02*
X57145206Y-121408223D01*
X57145206Y-121408223D02*
X57092825Y-121512985D01*
X57092825Y-121512985D02*
X57040444Y-121722509D01*
X57040444Y-121722509D02*
X57040444Y-121879652D01*
X57040444Y-121879652D02*
X57092825Y-122089176D01*
X57092825Y-122089176D02*
X57145206Y-122193938D01*
X57145206Y-122193938D02*
X57249968Y-122298700D01*
X57249968Y-122298700D02*
X57407111Y-122351080D01*
X57407111Y-122351080D02*
X57511873Y-122351080D01*
X57511873Y-122351080D02*
X57669016Y-122298700D01*
X57669016Y-122298700D02*
X57721397Y-122246319D01*
X57721397Y-122246319D02*
X57721397Y-121879652D01*
X57721397Y-121879652D02*
X57511873Y-121879652D01*
X58192825Y-122351080D02*
X58192825Y-121251080D01*
X58192825Y-121251080D02*
X58821397Y-122351080D01*
X58821397Y-122351080D02*
X58821397Y-121251080D01*
X59345206Y-122351080D02*
X59345206Y-121251080D01*
X59345206Y-121251080D02*
X59607111Y-121251080D01*
X59607111Y-121251080D02*
X59764254Y-121303461D01*
X59764254Y-121303461D02*
X59869016Y-121408223D01*
X59869016Y-121408223D02*
X59921397Y-121512985D01*
X59921397Y-121512985D02*
X59973778Y-121722509D01*
X59973778Y-121722509D02*
X59973778Y-121879652D01*
X59973778Y-121879652D02*
X59921397Y-122089176D01*
X59921397Y-122089176D02*
X59869016Y-122193938D01*
X59869016Y-122193938D02*
X59764254Y-122298700D01*
X59764254Y-122298700D02*
X59607111Y-122351080D01*
X59607111Y-122351080D02*
X59345206Y-122351080D01*
X61602349Y-121301080D02*
X61811873Y-121301080D01*
X61811873Y-121301080D02*
X61916635Y-121353461D01*
X61916635Y-121353461D02*
X62021397Y-121458223D01*
X62021397Y-121458223D02*
X62073778Y-121667747D01*
X62073778Y-121667747D02*
X62073778Y-122034414D01*
X62073778Y-122034414D02*
X62021397Y-122243938D01*
X62021397Y-122243938D02*
X61916635Y-122348700D01*
X61916635Y-122348700D02*
X61811873Y-122401080D01*
X61811873Y-122401080D02*
X61602349Y-122401080D01*
X61602349Y-122401080D02*
X61497587Y-122348700D01*
X61497587Y-122348700D02*
X61392825Y-122243938D01*
X61392825Y-122243938D02*
X61340444Y-122034414D01*
X61340444Y-122034414D02*
X61340444Y-121667747D01*
X61340444Y-121667747D02*
X61392825Y-121458223D01*
X61392825Y-121458223D02*
X61497587Y-121353461D01*
X61497587Y-121353461D02*
X61602349Y-121301080D01*
X62545206Y-121301080D02*
X62545206Y-122191557D01*
X62545206Y-122191557D02*
X62597587Y-122296319D01*
X62597587Y-122296319D02*
X62649968Y-122348700D01*
X62649968Y-122348700D02*
X62754730Y-122401080D01*
X62754730Y-122401080D02*
X62964254Y-122401080D01*
X62964254Y-122401080D02*
X63069016Y-122348700D01*
X63069016Y-122348700D02*
X63121397Y-122296319D01*
X63121397Y-122296319D02*
X63173778Y-122191557D01*
X63173778Y-122191557D02*
X63173778Y-121301080D01*
X63540444Y-121301080D02*
X64169016Y-121301080D01*
X63854730Y-122401080D02*
X63854730Y-121301080D01*
X64535682Y-122401080D02*
X64535682Y-121301080D01*
X64535682Y-121301080D02*
X64954730Y-121301080D01*
X64954730Y-121301080D02*
X65059492Y-121353461D01*
X65059492Y-121353461D02*
X65111873Y-121405842D01*
X65111873Y-121405842D02*
X65164254Y-121510604D01*
X65164254Y-121510604D02*
X65164254Y-121667747D01*
X65164254Y-121667747D02*
X65111873Y-121772509D01*
X65111873Y-121772509D02*
X65059492Y-121824890D01*
X65059492Y-121824890D02*
X64954730Y-121877271D01*
X64954730Y-121877271D02*
X64535682Y-121877271D01*
X65635682Y-121301080D02*
X65635682Y-122191557D01*
X65635682Y-122191557D02*
X65688063Y-122296319D01*
X65688063Y-122296319D02*
X65740444Y-122348700D01*
X65740444Y-122348700D02*
X65845206Y-122401080D01*
X65845206Y-122401080D02*
X66054730Y-122401080D01*
X66054730Y-122401080D02*
X66159492Y-122348700D01*
X66159492Y-122348700D02*
X66211873Y-122296319D01*
X66211873Y-122296319D02*
X66264254Y-122191557D01*
X66264254Y-122191557D02*
X66264254Y-121301080D01*
X66630920Y-121301080D02*
X67259492Y-121301080D01*
X66945206Y-122401080D02*
X66945206Y-121301080D01*
X77019016Y-119303461D02*
X76914254Y-119251080D01*
X76914254Y-119251080D02*
X76757111Y-119251080D01*
X76757111Y-119251080D02*
X76599968Y-119303461D01*
X76599968Y-119303461D02*
X76495206Y-119408223D01*
X76495206Y-119408223D02*
X76442825Y-119512985D01*
X76442825Y-119512985D02*
X76390444Y-119722509D01*
X76390444Y-119722509D02*
X76390444Y-119879652D01*
X76390444Y-119879652D02*
X76442825Y-120089176D01*
X76442825Y-120089176D02*
X76495206Y-120193938D01*
X76495206Y-120193938D02*
X76599968Y-120298700D01*
X76599968Y-120298700D02*
X76757111Y-120351080D01*
X76757111Y-120351080D02*
X76861873Y-120351080D01*
X76861873Y-120351080D02*
X77019016Y-120298700D01*
X77019016Y-120298700D02*
X77071397Y-120246319D01*
X77071397Y-120246319D02*
X77071397Y-119879652D01*
X77071397Y-119879652D02*
X76861873Y-119879652D01*
X77542825Y-120351080D02*
X77542825Y-119251080D01*
X77542825Y-119251080D02*
X78171397Y-120351080D01*
X78171397Y-120351080D02*
X78171397Y-119251080D01*
X78695206Y-120351080D02*
X78695206Y-119251080D01*
X78695206Y-119251080D02*
X78957111Y-119251080D01*
X78957111Y-119251080D02*
X79114254Y-119303461D01*
X79114254Y-119303461D02*
X79219016Y-119408223D01*
X79219016Y-119408223D02*
X79271397Y-119512985D01*
X79271397Y-119512985D02*
X79323778Y-119722509D01*
X79323778Y-119722509D02*
X79323778Y-119879652D01*
X79323778Y-119879652D02*
X79271397Y-120089176D01*
X79271397Y-120089176D02*
X79219016Y-120193938D01*
X79219016Y-120193938D02*
X79114254Y-120298700D01*
X79114254Y-120298700D02*
X78957111Y-120351080D01*
X78957111Y-120351080D02*
X78695206Y-120351080D01*
D49*
X79109580Y-97166666D02*
X79157200Y-97214285D01*
X79157200Y-97214285D02*
X79204819Y-97357142D01*
X79204819Y-97357142D02*
X79204819Y-97452380D01*
X79204819Y-97452380D02*
X79157200Y-97595237D01*
X79157200Y-97595237D02*
X79061961Y-97690475D01*
X79061961Y-97690475D02*
X78966723Y-97738094D01*
X78966723Y-97738094D02*
X78776247Y-97785713D01*
X78776247Y-97785713D02*
X78633390Y-97785713D01*
X78633390Y-97785713D02*
X78442914Y-97738094D01*
X78442914Y-97738094D02*
X78347676Y-97690475D01*
X78347676Y-97690475D02*
X78252438Y-97595237D01*
X78252438Y-97595237D02*
X78204819Y-97452380D01*
X78204819Y-97452380D02*
X78204819Y-97357142D01*
X78204819Y-97357142D02*
X78252438Y-97214285D01*
X78252438Y-97214285D02*
X78300057Y-97166666D01*
X78204819Y-96833332D02*
X78204819Y-96214285D01*
X78204819Y-96214285D02*
X78585771Y-96547618D01*
X78585771Y-96547618D02*
X78585771Y-96404761D01*
X78585771Y-96404761D02*
X78633390Y-96309523D01*
X78633390Y-96309523D02*
X78681009Y-96261904D01*
X78681009Y-96261904D02*
X78776247Y-96214285D01*
X78776247Y-96214285D02*
X79014342Y-96214285D01*
X79014342Y-96214285D02*
X79109580Y-96261904D01*
X79109580Y-96261904D02*
X79157200Y-96309523D01*
X79157200Y-96309523D02*
X79204819Y-96404761D01*
X79204819Y-96404761D02*
X79204819Y-96690475D01*
X79204819Y-96690475D02*
X79157200Y-96785713D01*
X79157200Y-96785713D02*
X79109580Y-96833332D01*
X60583333Y-96609580D02*
X60535714Y-96657200D01*
X60535714Y-96657200D02*
X60392857Y-96704819D01*
X60392857Y-96704819D02*
X60297619Y-96704819D01*
X60297619Y-96704819D02*
X60154762Y-96657200D01*
X60154762Y-96657200D02*
X60059524Y-96561961D01*
X60059524Y-96561961D02*
X60011905Y-96466723D01*
X60011905Y-96466723D02*
X59964286Y-96276247D01*
X59964286Y-96276247D02*
X59964286Y-96133390D01*
X59964286Y-96133390D02*
X60011905Y-95942914D01*
X60011905Y-95942914D02*
X60059524Y-95847676D01*
X60059524Y-95847676D02*
X60154762Y-95752438D01*
X60154762Y-95752438D02*
X60297619Y-95704819D01*
X60297619Y-95704819D02*
X60392857Y-95704819D01*
X60392857Y-95704819D02*
X60535714Y-95752438D01*
X60535714Y-95752438D02*
X60583333Y-95800057D01*
X61535714Y-96704819D02*
X60964286Y-96704819D01*
X61250000Y-96704819D02*
X61250000Y-95704819D01*
X61250000Y-95704819D02*
X61154762Y-95847676D01*
X61154762Y-95847676D02*
X61059524Y-95942914D01*
X61059524Y-95942914D02*
X60964286Y-95990533D01*
X57354761Y-94804819D02*
X57021428Y-94328628D01*
X56783333Y-94804819D02*
X56783333Y-93804819D01*
X56783333Y-93804819D02*
X57164285Y-93804819D01*
X57164285Y-93804819D02*
X57259523Y-93852438D01*
X57259523Y-93852438D02*
X57307142Y-93900057D01*
X57307142Y-93900057D02*
X57354761Y-93995295D01*
X57354761Y-93995295D02*
X57354761Y-94138152D01*
X57354761Y-94138152D02*
X57307142Y-94233390D01*
X57307142Y-94233390D02*
X57259523Y-94281009D01*
X57259523Y-94281009D02*
X57164285Y-94328628D01*
X57164285Y-94328628D02*
X56783333Y-94328628D01*
X57640476Y-93804819D02*
X57973809Y-94804819D01*
X57973809Y-94804819D02*
X58307142Y-93804819D01*
X59164285Y-94804819D02*
X58592857Y-94804819D01*
X58878571Y-94804819D02*
X58878571Y-93804819D01*
X58878571Y-93804819D02*
X58783333Y-93947676D01*
X58783333Y-93947676D02*
X58688095Y-94042914D01*
X58688095Y-94042914D02*
X58592857Y-94090533D01*
X61366666Y-118754819D02*
X61366666Y-119469104D01*
X61366666Y-119469104D02*
X61319047Y-119611961D01*
X61319047Y-119611961D02*
X61223809Y-119707200D01*
X61223809Y-119707200D02*
X61080952Y-119754819D01*
X61080952Y-119754819D02*
X60985714Y-119754819D01*
X61795238Y-118850057D02*
X61842857Y-118802438D01*
X61842857Y-118802438D02*
X61938095Y-118754819D01*
X61938095Y-118754819D02*
X62176190Y-118754819D01*
X62176190Y-118754819D02*
X62271428Y-118802438D01*
X62271428Y-118802438D02*
X62319047Y-118850057D01*
X62319047Y-118850057D02*
X62366666Y-118945295D01*
X62366666Y-118945295D02*
X62366666Y-119040533D01*
X62366666Y-119040533D02*
X62319047Y-119183390D01*
X62319047Y-119183390D02*
X61747619Y-119754819D01*
X61747619Y-119754819D02*
X62366666Y-119754819D01*
X62003333Y-102954819D02*
X61670000Y-102478628D01*
X61431905Y-102954819D02*
X61431905Y-101954819D01*
X61431905Y-101954819D02*
X61812857Y-101954819D01*
X61812857Y-101954819D02*
X61908095Y-102002438D01*
X61908095Y-102002438D02*
X61955714Y-102050057D01*
X61955714Y-102050057D02*
X62003333Y-102145295D01*
X62003333Y-102145295D02*
X62003333Y-102288152D01*
X62003333Y-102288152D02*
X61955714Y-102383390D01*
X61955714Y-102383390D02*
X61908095Y-102431009D01*
X61908095Y-102431009D02*
X61812857Y-102478628D01*
X61812857Y-102478628D02*
X61431905Y-102478628D01*
X62955714Y-102954819D02*
X62384286Y-102954819D01*
X62670000Y-102954819D02*
X62670000Y-101954819D01*
X62670000Y-101954819D02*
X62574762Y-102097676D01*
X62574762Y-102097676D02*
X62479524Y-102192914D01*
X62479524Y-102192914D02*
X62384286Y-102240533D01*
X77166666Y-121454819D02*
X77166666Y-122169104D01*
X77166666Y-122169104D02*
X77119047Y-122311961D01*
X77119047Y-122311961D02*
X77023809Y-122407200D01*
X77023809Y-122407200D02*
X76880952Y-122454819D01*
X76880952Y-122454819D02*
X76785714Y-122454819D01*
X77547619Y-121454819D02*
X78166666Y-121454819D01*
X78166666Y-121454819D02*
X77833333Y-121835771D01*
X77833333Y-121835771D02*
X77976190Y-121835771D01*
X77976190Y-121835771D02*
X78071428Y-121883390D01*
X78071428Y-121883390D02*
X78119047Y-121931009D01*
X78119047Y-121931009D02*
X78166666Y-122026247D01*
X78166666Y-122026247D02*
X78166666Y-122264342D01*
X78166666Y-122264342D02*
X78119047Y-122359580D01*
X78119047Y-122359580D02*
X78071428Y-122407200D01*
X78071428Y-122407200D02*
X77976190Y-122454819D01*
X77976190Y-122454819D02*
X77690476Y-122454819D01*
X77690476Y-122454819D02*
X77595238Y-122407200D01*
X77595238Y-122407200D02*
X77547619Y-122359580D01*
X76503333Y-81204819D02*
X76170000Y-80728628D01*
X75931905Y-81204819D02*
X75931905Y-80204819D01*
X75931905Y-80204819D02*
X76312857Y-80204819D01*
X76312857Y-80204819D02*
X76408095Y-80252438D01*
X76408095Y-80252438D02*
X76455714Y-80300057D01*
X76455714Y-80300057D02*
X76503333Y-80395295D01*
X76503333Y-80395295D02*
X76503333Y-80538152D01*
X76503333Y-80538152D02*
X76455714Y-80633390D01*
X76455714Y-80633390D02*
X76408095Y-80681009D01*
X76408095Y-80681009D02*
X76312857Y-80728628D01*
X76312857Y-80728628D02*
X75931905Y-80728628D01*
X76884286Y-80300057D02*
X76931905Y-80252438D01*
X76931905Y-80252438D02*
X77027143Y-80204819D01*
X77027143Y-80204819D02*
X77265238Y-80204819D01*
X77265238Y-80204819D02*
X77360476Y-80252438D01*
X77360476Y-80252438D02*
X77408095Y-80300057D01*
X77408095Y-80300057D02*
X77455714Y-80395295D01*
X77455714Y-80395295D02*
X77455714Y-80490533D01*
X77455714Y-80490533D02*
X77408095Y-80633390D01*
X77408095Y-80633390D02*
X76836667Y-81204819D01*
X76836667Y-81204819D02*
X77455714Y-81204819D01*
X93650057Y-96595238D02*
X93602438Y-96690476D01*
X93602438Y-96690476D02*
X93507200Y-96785714D01*
X93507200Y-96785714D02*
X93364342Y-96928571D01*
X93364342Y-96928571D02*
X93316723Y-97023809D01*
X93316723Y-97023809D02*
X93316723Y-97119047D01*
X93554819Y-97071428D02*
X93507200Y-97166666D01*
X93507200Y-97166666D02*
X93411961Y-97261904D01*
X93411961Y-97261904D02*
X93221485Y-97309523D01*
X93221485Y-97309523D02*
X92888152Y-97309523D01*
X92888152Y-97309523D02*
X92697676Y-97261904D01*
X92697676Y-97261904D02*
X92602438Y-97166666D01*
X92602438Y-97166666D02*
X92554819Y-97071428D01*
X92554819Y-97071428D02*
X92554819Y-96880952D01*
X92554819Y-96880952D02*
X92602438Y-96785714D01*
X92602438Y-96785714D02*
X92697676Y-96690476D01*
X92697676Y-96690476D02*
X92888152Y-96642857D01*
X92888152Y-96642857D02*
X93221485Y-96642857D01*
X93221485Y-96642857D02*
X93411961Y-96690476D01*
X93411961Y-96690476D02*
X93507200Y-96785714D01*
X93507200Y-96785714D02*
X93554819Y-96880952D01*
X93554819Y-96880952D02*
X93554819Y-97071428D01*
X93554819Y-95690476D02*
X93554819Y-96261904D01*
X93554819Y-95976190D02*
X92554819Y-95976190D01*
X92554819Y-95976190D02*
X92697676Y-96071428D01*
X92697676Y-96071428D02*
X92792914Y-96166666D01*
X92792914Y-96166666D02*
X92840533Y-96261904D01*
X75833333Y-86609580D02*
X75785714Y-86657200D01*
X75785714Y-86657200D02*
X75642857Y-86704819D01*
X75642857Y-86704819D02*
X75547619Y-86704819D01*
X75547619Y-86704819D02*
X75404762Y-86657200D01*
X75404762Y-86657200D02*
X75309524Y-86561961D01*
X75309524Y-86561961D02*
X75261905Y-86466723D01*
X75261905Y-86466723D02*
X75214286Y-86276247D01*
X75214286Y-86276247D02*
X75214286Y-86133390D01*
X75214286Y-86133390D02*
X75261905Y-85942914D01*
X75261905Y-85942914D02*
X75309524Y-85847676D01*
X75309524Y-85847676D02*
X75404762Y-85752438D01*
X75404762Y-85752438D02*
X75547619Y-85704819D01*
X75547619Y-85704819D02*
X75642857Y-85704819D01*
X75642857Y-85704819D02*
X75785714Y-85752438D01*
X75785714Y-85752438D02*
X75833333Y-85800057D01*
X76214286Y-85800057D02*
X76261905Y-85752438D01*
X76261905Y-85752438D02*
X76357143Y-85704819D01*
X76357143Y-85704819D02*
X76595238Y-85704819D01*
X76595238Y-85704819D02*
X76690476Y-85752438D01*
X76690476Y-85752438D02*
X76738095Y-85800057D01*
X76738095Y-85800057D02*
X76785714Y-85895295D01*
X76785714Y-85895295D02*
X76785714Y-85990533D01*
X76785714Y-85990533D02*
X76738095Y-86133390D01*
X76738095Y-86133390D02*
X76166667Y-86704819D01*
X76166667Y-86704819D02*
X76785714Y-86704819D01*
X94050057Y-110095238D02*
X94002438Y-110190476D01*
X94002438Y-110190476D02*
X93907200Y-110285714D01*
X93907200Y-110285714D02*
X93764342Y-110428571D01*
X93764342Y-110428571D02*
X93716723Y-110523809D01*
X93716723Y-110523809D02*
X93716723Y-110619047D01*
X93954819Y-110571428D02*
X93907200Y-110666666D01*
X93907200Y-110666666D02*
X93811961Y-110761904D01*
X93811961Y-110761904D02*
X93621485Y-110809523D01*
X93621485Y-110809523D02*
X93288152Y-110809523D01*
X93288152Y-110809523D02*
X93097676Y-110761904D01*
X93097676Y-110761904D02*
X93002438Y-110666666D01*
X93002438Y-110666666D02*
X92954819Y-110571428D01*
X92954819Y-110571428D02*
X92954819Y-110380952D01*
X92954819Y-110380952D02*
X93002438Y-110285714D01*
X93002438Y-110285714D02*
X93097676Y-110190476D01*
X93097676Y-110190476D02*
X93288152Y-110142857D01*
X93288152Y-110142857D02*
X93621485Y-110142857D01*
X93621485Y-110142857D02*
X93811961Y-110190476D01*
X93811961Y-110190476D02*
X93907200Y-110285714D01*
X93907200Y-110285714D02*
X93954819Y-110380952D01*
X93954819Y-110380952D02*
X93954819Y-110571428D01*
X93050057Y-109761904D02*
X93002438Y-109714285D01*
X93002438Y-109714285D02*
X92954819Y-109619047D01*
X92954819Y-109619047D02*
X92954819Y-109380952D01*
X92954819Y-109380952D02*
X93002438Y-109285714D01*
X93002438Y-109285714D02*
X93050057Y-109238095D01*
X93050057Y-109238095D02*
X93145295Y-109190476D01*
X93145295Y-109190476D02*
X93240533Y-109190476D01*
X93240533Y-109190476D02*
X93383390Y-109238095D01*
X93383390Y-109238095D02*
X93954819Y-109809523D01*
X93954819Y-109809523D02*
X93954819Y-109190476D01*
X85954819Y-88988094D02*
X84954819Y-88988094D01*
X84954819Y-88988094D02*
X84954819Y-88749999D01*
X84954819Y-88749999D02*
X85002438Y-88607142D01*
X85002438Y-88607142D02*
X85097676Y-88511904D01*
X85097676Y-88511904D02*
X85192914Y-88464285D01*
X85192914Y-88464285D02*
X85383390Y-88416666D01*
X85383390Y-88416666D02*
X85526247Y-88416666D01*
X85526247Y-88416666D02*
X85716723Y-88464285D01*
X85716723Y-88464285D02*
X85811961Y-88511904D01*
X85811961Y-88511904D02*
X85907200Y-88607142D01*
X85907200Y-88607142D02*
X85954819Y-88749999D01*
X85954819Y-88749999D02*
X85954819Y-88988094D01*
X85954819Y-87464285D02*
X85954819Y-88035713D01*
X85954819Y-87749999D02*
X84954819Y-87749999D01*
X84954819Y-87749999D02*
X85097676Y-87845237D01*
X85097676Y-87845237D02*
X85192914Y-87940475D01*
X85192914Y-87940475D02*
X85240533Y-88035713D01*
X87954819Y-86261904D02*
X86954819Y-86261904D01*
X87954819Y-85690476D02*
X87383390Y-86119047D01*
X86954819Y-85690476D02*
X87526247Y-86261904D01*
X73178095Y-95204819D02*
X73178095Y-96014342D01*
X73178095Y-96014342D02*
X73225714Y-96109580D01*
X73225714Y-96109580D02*
X73273333Y-96157200D01*
X73273333Y-96157200D02*
X73368571Y-96204819D01*
X73368571Y-96204819D02*
X73559047Y-96204819D01*
X73559047Y-96204819D02*
X73654285Y-96157200D01*
X73654285Y-96157200D02*
X73701904Y-96109580D01*
X73701904Y-96109580D02*
X73749523Y-96014342D01*
X73749523Y-96014342D02*
X73749523Y-95204819D01*
X74749523Y-96204819D02*
X74178095Y-96204819D01*
X74463809Y-96204819D02*
X74463809Y-95204819D01*
X74463809Y-95204819D02*
X74368571Y-95347676D01*
X74368571Y-95347676D02*
X74273333Y-95442914D01*
X74273333Y-95442914D02*
X74178095Y-95490533D01*
X53166666Y-94824819D02*
X53166666Y-95539104D01*
X53166666Y-95539104D02*
X53119047Y-95681961D01*
X53119047Y-95681961D02*
X53023809Y-95777200D01*
X53023809Y-95777200D02*
X52880952Y-95824819D01*
X52880952Y-95824819D02*
X52785714Y-95824819D01*
X54166666Y-95824819D02*
X53595238Y-95824819D01*
X53880952Y-95824819D02*
X53880952Y-94824819D01*
X53880952Y-94824819D02*
X53785714Y-94967676D01*
X53785714Y-94967676D02*
X53690476Y-95062914D01*
X53690476Y-95062914D02*
X53595238Y-95110533D01*
%TO.C,C3*%
D50*
X79920000Y-96960000D02*
X85080000Y-96960000D01*
X79920000Y-97000000D02*
X85080000Y-97000000D01*
X79921000Y-96920000D02*
X85079000Y-96920000D01*
X79923000Y-96880000D02*
X85077000Y-96880000D01*
X79925000Y-96840000D02*
X85075000Y-96840000D01*
X79928000Y-96800000D02*
X85072000Y-96800000D01*
X79931000Y-96760000D02*
X81460000Y-96760000D01*
X79935000Y-96720000D02*
X81460000Y-96720000D01*
X79940000Y-96680000D02*
X81460000Y-96680000D01*
X79945000Y-96640000D02*
X81460000Y-96640000D01*
X79951000Y-96600000D02*
X81460000Y-96600000D01*
X79957000Y-96560000D02*
X81460000Y-96560000D01*
X79964000Y-96520000D02*
X81460000Y-96520000D01*
X79972000Y-96480000D02*
X81460000Y-96480000D01*
X79981000Y-96440000D02*
X81460000Y-96440000D01*
X79990000Y-96400000D02*
X81460000Y-96400000D01*
X79999000Y-96360000D02*
X81460000Y-96360000D01*
X80010000Y-96320000D02*
X81460000Y-96320000D01*
X80021000Y-96280000D02*
X81460000Y-96280000D01*
X80033000Y-96240000D02*
X81460000Y-96240000D01*
X80045000Y-96200000D02*
X81460000Y-96200000D01*
X80058000Y-96160000D02*
X81460000Y-96160000D01*
X80072000Y-96120000D02*
X81460000Y-96120000D01*
X80087000Y-96080000D02*
X81460000Y-96080000D01*
X80102000Y-96040000D02*
X81460000Y-96040000D01*
X80118000Y-96000000D02*
X81460000Y-96000000D01*
X80135000Y-95960000D02*
X81460000Y-95960000D01*
X80153000Y-95920000D02*
X81460000Y-95920000D01*
X80171000Y-95880000D02*
X81460000Y-95880000D01*
X80191000Y-95840000D02*
X81460000Y-95840000D01*
X80211000Y-95800000D02*
X81460000Y-95800000D01*
X80232000Y-95760000D02*
X81460000Y-95760000D01*
X80254000Y-95720000D02*
X81460000Y-95720000D01*
X80277000Y-95680000D02*
X81460000Y-95680000D01*
X80301000Y-95640000D02*
X81460000Y-95640000D01*
X80325000Y-95600000D02*
X81460000Y-95600000D01*
X80351000Y-95560000D02*
X81460000Y-95560000D01*
X80378000Y-95520000D02*
X81460000Y-95520000D01*
X80406000Y-95480000D02*
X81460000Y-95480000D01*
X80435000Y-95440000D02*
X81460000Y-95440000D01*
X80465000Y-95400000D02*
X81460000Y-95400000D01*
X80497000Y-95360000D02*
X81460000Y-95360000D01*
X80530000Y-95320000D02*
X81460000Y-95320000D01*
X80564000Y-95280000D02*
X81460000Y-95280000D01*
X80599000Y-95240000D02*
X81460000Y-95240000D01*
X80636000Y-95200000D02*
X81460000Y-95200000D01*
X80675000Y-95160000D02*
X81460000Y-95160000D01*
X80715000Y-95120000D02*
X81460000Y-95120000D01*
X80757000Y-95080000D02*
X81460000Y-95080000D01*
X80775000Y-99554775D02*
X81275000Y-99554775D01*
X80801000Y-95040000D02*
X81460000Y-95040000D01*
X80848000Y-95000000D02*
X81460000Y-95000000D01*
X80896000Y-94960000D02*
X81460000Y-94960000D01*
X80947000Y-94920000D02*
X81460000Y-94920000D01*
X81001000Y-94880000D02*
X81460000Y-94880000D01*
X81025000Y-99804775D02*
X81025000Y-99304775D01*
X81057000Y-94840000D02*
X81460000Y-94840000D01*
X81117000Y-94800000D02*
X81460000Y-94800000D01*
X81181000Y-94760000D02*
X81460000Y-94760000D01*
X81249000Y-94720000D02*
X81460000Y-94720000D01*
X81323000Y-94680000D02*
X83677000Y-94680000D01*
X81402000Y-94640000D02*
X83598000Y-94640000D01*
X81489000Y-94600000D02*
X83511000Y-94600000D01*
X81586000Y-94560000D02*
X83414000Y-94560000D01*
X81695000Y-94520000D02*
X83305000Y-94520000D01*
X81823000Y-94480000D02*
X83177000Y-94480000D01*
X81983000Y-94440000D02*
X83017000Y-94440000D01*
X82217000Y-94400000D02*
X82783000Y-94400000D01*
X83540000Y-94720000D02*
X83751000Y-94720000D01*
X83540000Y-94760000D02*
X83819000Y-94760000D01*
X83540000Y-94800000D02*
X83883000Y-94800000D01*
X83540000Y-94840000D02*
X83943000Y-94840000D01*
X83540000Y-94880000D02*
X83999000Y-94880000D01*
X83540000Y-94920000D02*
X84053000Y-94920000D01*
X83540000Y-94960000D02*
X84104000Y-94960000D01*
X83540000Y-95000000D02*
X84152000Y-95000000D01*
X83540000Y-95040000D02*
X84199000Y-95040000D01*
X83540000Y-95080000D02*
X84243000Y-95080000D01*
X83540000Y-95120000D02*
X84285000Y-95120000D01*
X83540000Y-95160000D02*
X84325000Y-95160000D01*
X83540000Y-95200000D02*
X84364000Y-95200000D01*
X83540000Y-95240000D02*
X84401000Y-95240000D01*
X83540000Y-95280000D02*
X84436000Y-95280000D01*
X83540000Y-95320000D02*
X84470000Y-95320000D01*
X83540000Y-95360000D02*
X84503000Y-95360000D01*
X83540000Y-95400000D02*
X84535000Y-95400000D01*
X83540000Y-95440000D02*
X84565000Y-95440000D01*
X83540000Y-95480000D02*
X84594000Y-95480000D01*
X83540000Y-95520000D02*
X84622000Y-95520000D01*
X83540000Y-95560000D02*
X84649000Y-95560000D01*
X83540000Y-95600000D02*
X84675000Y-95600000D01*
X83540000Y-95640000D02*
X84699000Y-95640000D01*
X83540000Y-95680000D02*
X84723000Y-95680000D01*
X83540000Y-95720000D02*
X84746000Y-95720000D01*
X83540000Y-95760000D02*
X84768000Y-95760000D01*
X83540000Y-95800000D02*
X84789000Y-95800000D01*
X83540000Y-95840000D02*
X84809000Y-95840000D01*
X83540000Y-95880000D02*
X84829000Y-95880000D01*
X83540000Y-95920000D02*
X84847000Y-95920000D01*
X83540000Y-95960000D02*
X84865000Y-95960000D01*
X83540000Y-96000000D02*
X84882000Y-96000000D01*
X83540000Y-96040000D02*
X84898000Y-96040000D01*
X83540000Y-96080000D02*
X84913000Y-96080000D01*
X83540000Y-96120000D02*
X84928000Y-96120000D01*
X83540000Y-96160000D02*
X84942000Y-96160000D01*
X83540000Y-96200000D02*
X84955000Y-96200000D01*
X83540000Y-96240000D02*
X84967000Y-96240000D01*
X83540000Y-96280000D02*
X84979000Y-96280000D01*
X83540000Y-96320000D02*
X84990000Y-96320000D01*
X83540000Y-96360000D02*
X85001000Y-96360000D01*
X83540000Y-96400000D02*
X85010000Y-96400000D01*
X83540000Y-96440000D02*
X85019000Y-96440000D01*
X83540000Y-96480000D02*
X85028000Y-96480000D01*
X83540000Y-96520000D02*
X85036000Y-96520000D01*
X83540000Y-96560000D02*
X85043000Y-96560000D01*
X83540000Y-96600000D02*
X85049000Y-96600000D01*
X83540000Y-96640000D02*
X85055000Y-96640000D01*
X83540000Y-96680000D02*
X85060000Y-96680000D01*
X83540000Y-96720000D02*
X85065000Y-96720000D01*
X83540000Y-96760000D02*
X85069000Y-96760000D01*
X85120000Y-97000000D02*
G75*
G02*
X79880000Y-97000000I-2620000J0D01*
G01*
X79880000Y-97000000D02*
G75*
G02*
X85120000Y-97000000I2620000J0D01*
G01*
%TO.C,C1*%
X61445225Y-94525000D02*
X61945225Y-94525000D01*
X61695225Y-94275000D02*
X61695225Y-94775000D01*
X64250000Y-93420000D02*
X64250000Y-98580000D01*
X64290000Y-93420000D02*
X64290000Y-98580000D01*
X64330000Y-93421000D02*
X64330000Y-98579000D01*
X64370000Y-93423000D02*
X64370000Y-98577000D01*
X64410000Y-93425000D02*
X64410000Y-98575000D01*
X64450000Y-93428000D02*
X64450000Y-98572000D01*
X64490000Y-93431000D02*
X64490000Y-94960000D01*
X64490000Y-97040000D02*
X64490000Y-98569000D01*
X64530000Y-93435000D02*
X64530000Y-94960000D01*
X64530000Y-97040000D02*
X64530000Y-98565000D01*
X64570000Y-93440000D02*
X64570000Y-94960000D01*
X64570000Y-97040000D02*
X64570000Y-98560000D01*
X64610000Y-93445000D02*
X64610000Y-94960000D01*
X64610000Y-97040000D02*
X64610000Y-98555000D01*
X64650000Y-93451000D02*
X64650000Y-94960000D01*
X64650000Y-97040000D02*
X64650000Y-98549000D01*
X64690000Y-93457000D02*
X64690000Y-94960000D01*
X64690000Y-97040000D02*
X64690000Y-98543000D01*
X64730000Y-93464000D02*
X64730000Y-94960000D01*
X64730000Y-97040000D02*
X64730000Y-98536000D01*
X64770000Y-93472000D02*
X64770000Y-94960000D01*
X64770000Y-97040000D02*
X64770000Y-98528000D01*
X64810000Y-93481000D02*
X64810000Y-94960000D01*
X64810000Y-97040000D02*
X64810000Y-98519000D01*
X64850000Y-93490000D02*
X64850000Y-94960000D01*
X64850000Y-97040000D02*
X64850000Y-98510000D01*
X64890000Y-93499000D02*
X64890000Y-94960000D01*
X64890000Y-97040000D02*
X64890000Y-98501000D01*
X64930000Y-93510000D02*
X64930000Y-94960000D01*
X64930000Y-97040000D02*
X64930000Y-98490000D01*
X64970000Y-93521000D02*
X64970000Y-94960000D01*
X64970000Y-97040000D02*
X64970000Y-98479000D01*
X65010000Y-93533000D02*
X65010000Y-94960000D01*
X65010000Y-97040000D02*
X65010000Y-98467000D01*
X65050000Y-93545000D02*
X65050000Y-94960000D01*
X65050000Y-97040000D02*
X65050000Y-98455000D01*
X65090000Y-93558000D02*
X65090000Y-94960000D01*
X65090000Y-97040000D02*
X65090000Y-98442000D01*
X65130000Y-93572000D02*
X65130000Y-94960000D01*
X65130000Y-97040000D02*
X65130000Y-98428000D01*
X65170000Y-93587000D02*
X65170000Y-94960000D01*
X65170000Y-97040000D02*
X65170000Y-98413000D01*
X65210000Y-93602000D02*
X65210000Y-94960000D01*
X65210000Y-97040000D02*
X65210000Y-98398000D01*
X65250000Y-93618000D02*
X65250000Y-94960000D01*
X65250000Y-97040000D02*
X65250000Y-98382000D01*
X65290000Y-93635000D02*
X65290000Y-94960000D01*
X65290000Y-97040000D02*
X65290000Y-98365000D01*
X65330000Y-93653000D02*
X65330000Y-94960000D01*
X65330000Y-97040000D02*
X65330000Y-98347000D01*
X65370000Y-93671000D02*
X65370000Y-94960000D01*
X65370000Y-97040000D02*
X65370000Y-98329000D01*
X65410000Y-93691000D02*
X65410000Y-94960000D01*
X65410000Y-97040000D02*
X65410000Y-98309000D01*
X65450000Y-93711000D02*
X65450000Y-94960000D01*
X65450000Y-97040000D02*
X65450000Y-98289000D01*
X65490000Y-93732000D02*
X65490000Y-94960000D01*
X65490000Y-97040000D02*
X65490000Y-98268000D01*
X65530000Y-93754000D02*
X65530000Y-94960000D01*
X65530000Y-97040000D02*
X65530000Y-98246000D01*
X65570000Y-93777000D02*
X65570000Y-94960000D01*
X65570000Y-97040000D02*
X65570000Y-98223000D01*
X65610000Y-93801000D02*
X65610000Y-94960000D01*
X65610000Y-97040000D02*
X65610000Y-98199000D01*
X65650000Y-93825000D02*
X65650000Y-94960000D01*
X65650000Y-97040000D02*
X65650000Y-98175000D01*
X65690000Y-93851000D02*
X65690000Y-94960000D01*
X65690000Y-97040000D02*
X65690000Y-98149000D01*
X65730000Y-93878000D02*
X65730000Y-94960000D01*
X65730000Y-97040000D02*
X65730000Y-98122000D01*
X65770000Y-93906000D02*
X65770000Y-94960000D01*
X65770000Y-97040000D02*
X65770000Y-98094000D01*
X65810000Y-93935000D02*
X65810000Y-94960000D01*
X65810000Y-97040000D02*
X65810000Y-98065000D01*
X65850000Y-93965000D02*
X65850000Y-94960000D01*
X65850000Y-97040000D02*
X65850000Y-98035000D01*
X65890000Y-93997000D02*
X65890000Y-94960000D01*
X65890000Y-97040000D02*
X65890000Y-98003000D01*
X65930000Y-94030000D02*
X65930000Y-94960000D01*
X65930000Y-97040000D02*
X65930000Y-97970000D01*
X65970000Y-94064000D02*
X65970000Y-94960000D01*
X65970000Y-97040000D02*
X65970000Y-97936000D01*
X66010000Y-94099000D02*
X66010000Y-94960000D01*
X66010000Y-97040000D02*
X66010000Y-97901000D01*
X66050000Y-94136000D02*
X66050000Y-94960000D01*
X66050000Y-97040000D02*
X66050000Y-97864000D01*
X66090000Y-94175000D02*
X66090000Y-94960000D01*
X66090000Y-97040000D02*
X66090000Y-97825000D01*
X66130000Y-94215000D02*
X66130000Y-94960000D01*
X66130000Y-97040000D02*
X66130000Y-97785000D01*
X66170000Y-94257000D02*
X66170000Y-94960000D01*
X66170000Y-97040000D02*
X66170000Y-97743000D01*
X66210000Y-94301000D02*
X66210000Y-94960000D01*
X66210000Y-97040000D02*
X66210000Y-97699000D01*
X66250000Y-94348000D02*
X66250000Y-94960000D01*
X66250000Y-97040000D02*
X66250000Y-97652000D01*
X66290000Y-94396000D02*
X66290000Y-94960000D01*
X66290000Y-97040000D02*
X66290000Y-97604000D01*
X66330000Y-94447000D02*
X66330000Y-94960000D01*
X66330000Y-97040000D02*
X66330000Y-97553000D01*
X66370000Y-94501000D02*
X66370000Y-94960000D01*
X66370000Y-97040000D02*
X66370000Y-97499000D01*
X66410000Y-94557000D02*
X66410000Y-94960000D01*
X66410000Y-97040000D02*
X66410000Y-97443000D01*
X66450000Y-94617000D02*
X66450000Y-94960000D01*
X66450000Y-97040000D02*
X66450000Y-97383000D01*
X66490000Y-94681000D02*
X66490000Y-94960000D01*
X66490000Y-97040000D02*
X66490000Y-97319000D01*
X66530000Y-94749000D02*
X66530000Y-94960000D01*
X66530000Y-97040000D02*
X66530000Y-97251000D01*
X66570000Y-94823000D02*
X66570000Y-97177000D01*
X66610000Y-94902000D02*
X66610000Y-97098000D01*
X66650000Y-94989000D02*
X66650000Y-97011000D01*
X66690000Y-95086000D02*
X66690000Y-96914000D01*
X66730000Y-95195000D02*
X66730000Y-96805000D01*
X66770000Y-95323000D02*
X66770000Y-96677000D01*
X66810000Y-95483000D02*
X66810000Y-96517000D01*
X66850000Y-95717000D02*
X66850000Y-96283000D01*
X66870000Y-96000000D02*
G75*
G02*
X61630000Y-96000000I-2620000J0D01*
G01*
X61630000Y-96000000D02*
G75*
G02*
X66870000Y-96000000I2620000J0D01*
G01*
%TO.C,RV1*%
X65980000Y-86400000D02*
G75*
G02*
X65980000Y-83600000I-7480056J1400000D01*
G01*
%TO.C,J2*%
X56380000Y-105630000D02*
X66620000Y-105630000D01*
X56380000Y-111750000D02*
X57020000Y-111750000D01*
X56380000Y-118370000D02*
X56380000Y-105630000D01*
X57650000Y-117750000D02*
X57650000Y-113730000D01*
X58700000Y-118370000D02*
X56380000Y-118370000D01*
X60350000Y-113730000D02*
X60350000Y-117750000D01*
X60350000Y-117750000D02*
X57650000Y-117750000D01*
X60980000Y-111750000D02*
X62020000Y-111750000D01*
X62650000Y-117750000D02*
X62650000Y-113198000D01*
X65350000Y-113198000D02*
X65350000Y-117750000D01*
X65350000Y-117750000D02*
X62650000Y-117750000D01*
X65980000Y-111750000D02*
X66620000Y-111750000D01*
X66620000Y-105630000D02*
X66620000Y-118370000D01*
X66620000Y-118370000D02*
X59300000Y-118370000D01*
X57250000Y-107250000D02*
G75*
G02*
X60750000Y-107250000I1750000J-459259D01*
G01*
X60750000Y-107250000D02*
G75*
G02*
X57250000Y-107250000I-1750000J459259D01*
G01*
X62250000Y-107250000D02*
G75*
G02*
X65750000Y-107250000I1750000J-459259D01*
G01*
X65750000Y-107250000D02*
G75*
G02*
X62250000Y-107250000I-1750000J459259D01*
G01*
X59440000Y-118980000D02*
X58560000Y-118980000D01*
X59000000Y-118370000D01*
X59440000Y-118980000D01*
G36*
X59440000Y-118980000D02*
G01*
X58560000Y-118980000D01*
X59000000Y-118370000D01*
X59440000Y-118980000D01*
G37*
%TO.C,R1*%
X58130000Y-102500000D02*
X58900000Y-102500000D01*
X66210000Y-102500000D02*
X65440000Y-102500000D01*
X58900000Y-101130000D02*
X65440000Y-101130000D01*
X65440000Y-103870000D01*
X58900000Y-103870000D01*
X58900000Y-101130000D01*
%TO.C,J3*%
X70380000Y-105130000D02*
X85620000Y-105130000D01*
X70380000Y-111250000D02*
X71020000Y-111250000D01*
X70380000Y-117870000D02*
X70380000Y-105130000D01*
X71650000Y-117250000D02*
X71650000Y-113230000D01*
X72700000Y-117870000D02*
X70380000Y-117870000D01*
X74350000Y-113230000D02*
X74350000Y-117250000D01*
X74350000Y-117250000D02*
X71650000Y-117250000D01*
X74980000Y-111250000D02*
X76020000Y-111250000D01*
X76650000Y-117250000D02*
X76650000Y-112698000D01*
X79350000Y-112698000D02*
X79350000Y-117250000D01*
X79350000Y-117250000D02*
X76650000Y-117250000D01*
X79980000Y-111250000D02*
X81020000Y-111250000D01*
X81650000Y-117250000D02*
X81650000Y-112698000D01*
X84350000Y-112698000D02*
X84350000Y-117250000D01*
X84350000Y-117250000D02*
X81650000Y-117250000D01*
X84980000Y-111250000D02*
X85620000Y-111250000D01*
X85620000Y-105130000D02*
X85620000Y-117870000D01*
X85620000Y-117870000D02*
X73300000Y-117870000D01*
X71250000Y-106750000D02*
G75*
G02*
X74750000Y-106750000I1750000J-459259D01*
G01*
X74750000Y-106750000D02*
G75*
G02*
X71250000Y-106750000I-1750000J459259D01*
G01*
X76250000Y-106750000D02*
G75*
G02*
X79750000Y-106750000I1750000J-459259D01*
G01*
X79750000Y-106750000D02*
G75*
G02*
X76250000Y-106750000I-1750000J459259D01*
G01*
X81250000Y-106750000D02*
G75*
G02*
X84750000Y-106750000I1750000J-459259D01*
G01*
X84750000Y-106750000D02*
G75*
G02*
X81250000Y-106750000I-1750000J459259D01*
G01*
X73440000Y-118480000D02*
X72560000Y-118480000D01*
X73000000Y-117870000D01*
X73440000Y-118480000D01*
G36*
X73440000Y-118480000D02*
G01*
X72560000Y-118480000D01*
X73000000Y-117870000D01*
X73440000Y-118480000D01*
G37*
%TO.C,R2*%
X72630000Y-80750000D02*
X73400000Y-80750000D01*
X80710000Y-80750000D02*
X79940000Y-80750000D01*
X73400000Y-79380000D02*
X79940000Y-79380000D01*
X79940000Y-82120000D01*
X73400000Y-82120000D01*
X73400000Y-79380000D01*
%TO.C,Q1*%
X87640000Y-91390000D02*
X92260000Y-91390000D01*
X87640000Y-101610000D02*
X87640000Y-91390000D01*
X90880000Y-91390000D02*
X90880000Y-101610000D01*
X92260000Y-91390000D02*
X92260000Y-101610000D01*
X92260000Y-94650000D02*
X90880000Y-94650000D01*
X92260000Y-98350000D02*
X90880000Y-98350000D01*
X92260000Y-101610000D02*
X87640000Y-101610000D01*
%TO.C,C2*%
X77170000Y-86210000D02*
X82330000Y-86210000D01*
X77170000Y-86250000D02*
X82330000Y-86250000D01*
X77171000Y-86170000D02*
X82329000Y-86170000D01*
X77173000Y-86130000D02*
X82327000Y-86130000D01*
X77175000Y-86090000D02*
X82325000Y-86090000D01*
X77178000Y-86050000D02*
X82322000Y-86050000D01*
X77181000Y-86010000D02*
X78710000Y-86010000D01*
X77185000Y-85970000D02*
X78710000Y-85970000D01*
X77190000Y-85930000D02*
X78710000Y-85930000D01*
X77195000Y-85890000D02*
X78710000Y-85890000D01*
X77201000Y-85850000D02*
X78710000Y-85850000D01*
X77207000Y-85810000D02*
X78710000Y-85810000D01*
X77214000Y-85770000D02*
X78710000Y-85770000D01*
X77222000Y-85730000D02*
X78710000Y-85730000D01*
X77231000Y-85690000D02*
X78710000Y-85690000D01*
X77240000Y-85650000D02*
X78710000Y-85650000D01*
X77249000Y-85610000D02*
X78710000Y-85610000D01*
X77260000Y-85570000D02*
X78710000Y-85570000D01*
X77271000Y-85530000D02*
X78710000Y-85530000D01*
X77283000Y-85490000D02*
X78710000Y-85490000D01*
X77295000Y-85450000D02*
X78710000Y-85450000D01*
X77308000Y-85410000D02*
X78710000Y-85410000D01*
X77322000Y-85370000D02*
X78710000Y-85370000D01*
X77337000Y-85330000D02*
X78710000Y-85330000D01*
X77352000Y-85290000D02*
X78710000Y-85290000D01*
X77368000Y-85250000D02*
X78710000Y-85250000D01*
X77385000Y-85210000D02*
X78710000Y-85210000D01*
X77403000Y-85170000D02*
X78710000Y-85170000D01*
X77421000Y-85130000D02*
X78710000Y-85130000D01*
X77441000Y-85090000D02*
X78710000Y-85090000D01*
X77461000Y-85050000D02*
X78710000Y-85050000D01*
X77482000Y-85010000D02*
X78710000Y-85010000D01*
X77504000Y-84970000D02*
X78710000Y-84970000D01*
X77527000Y-84930000D02*
X78710000Y-84930000D01*
X77551000Y-84890000D02*
X78710000Y-84890000D01*
X77575000Y-84850000D02*
X78710000Y-84850000D01*
X77601000Y-84810000D02*
X78710000Y-84810000D01*
X77628000Y-84770000D02*
X78710000Y-84770000D01*
X77656000Y-84730000D02*
X78710000Y-84730000D01*
X77685000Y-84690000D02*
X78710000Y-84690000D01*
X77715000Y-84650000D02*
X78710000Y-84650000D01*
X77747000Y-84610000D02*
X78710000Y-84610000D01*
X77780000Y-84570000D02*
X78710000Y-84570000D01*
X77814000Y-84530000D02*
X78710000Y-84530000D01*
X77849000Y-84490000D02*
X78710000Y-84490000D01*
X77886000Y-84450000D02*
X78710000Y-84450000D01*
X77925000Y-84410000D02*
X78710000Y-84410000D01*
X77965000Y-84370000D02*
X78710000Y-84370000D01*
X78007000Y-84330000D02*
X78710000Y-84330000D01*
X78025000Y-88804775D02*
X78525000Y-88804775D01*
X78051000Y-84290000D02*
X78710000Y-84290000D01*
X78098000Y-84250000D02*
X78710000Y-84250000D01*
X78146000Y-84210000D02*
X78710000Y-84210000D01*
X78197000Y-84170000D02*
X78710000Y-84170000D01*
X78251000Y-84130000D02*
X78710000Y-84130000D01*
X78275000Y-89054775D02*
X78275000Y-88554775D01*
X78307000Y-84090000D02*
X78710000Y-84090000D01*
X78367000Y-84050000D02*
X78710000Y-84050000D01*
X78431000Y-84010000D02*
X78710000Y-84010000D01*
X78499000Y-83970000D02*
X78710000Y-83970000D01*
X78573000Y-83930000D02*
X80927000Y-83930000D01*
X78652000Y-83890000D02*
X80848000Y-83890000D01*
X78739000Y-83850000D02*
X80761000Y-83850000D01*
X78836000Y-83810000D02*
X80664000Y-83810000D01*
X78945000Y-83770000D02*
X80555000Y-83770000D01*
X79073000Y-83730000D02*
X80427000Y-83730000D01*
X79233000Y-83690000D02*
X80267000Y-83690000D01*
X79467000Y-83650000D02*
X80033000Y-83650000D01*
X80790000Y-83970000D02*
X81001000Y-83970000D01*
X80790000Y-84010000D02*
X81069000Y-84010000D01*
X80790000Y-84050000D02*
X81133000Y-84050000D01*
X80790000Y-84090000D02*
X81193000Y-84090000D01*
X80790000Y-84130000D02*
X81249000Y-84130000D01*
X80790000Y-84170000D02*
X81303000Y-84170000D01*
X80790000Y-84210000D02*
X81354000Y-84210000D01*
X80790000Y-84250000D02*
X81402000Y-84250000D01*
X80790000Y-84290000D02*
X81449000Y-84290000D01*
X80790000Y-84330000D02*
X81493000Y-84330000D01*
X80790000Y-84370000D02*
X81535000Y-84370000D01*
X80790000Y-84410000D02*
X81575000Y-84410000D01*
X80790000Y-84450000D02*
X81614000Y-84450000D01*
X80790000Y-84490000D02*
X81651000Y-84490000D01*
X80790000Y-84530000D02*
X81686000Y-84530000D01*
X80790000Y-84570000D02*
X81720000Y-84570000D01*
X80790000Y-84610000D02*
X81753000Y-84610000D01*
X80790000Y-84650000D02*
X81785000Y-84650000D01*
X80790000Y-84690000D02*
X81815000Y-84690000D01*
X80790000Y-84730000D02*
X81844000Y-84730000D01*
X80790000Y-84770000D02*
X81872000Y-84770000D01*
X80790000Y-84810000D02*
X81899000Y-84810000D01*
X80790000Y-84850000D02*
X81925000Y-84850000D01*
X80790000Y-84890000D02*
X81949000Y-84890000D01*
X80790000Y-84930000D02*
X81973000Y-84930000D01*
X80790000Y-84970000D02*
X81996000Y-84970000D01*
X80790000Y-85010000D02*
X82018000Y-85010000D01*
X80790000Y-85050000D02*
X82039000Y-85050000D01*
X80790000Y-85090000D02*
X82059000Y-85090000D01*
X80790000Y-85130000D02*
X82079000Y-85130000D01*
X80790000Y-85170000D02*
X82097000Y-85170000D01*
X80790000Y-85210000D02*
X82115000Y-85210000D01*
X80790000Y-85250000D02*
X82132000Y-85250000D01*
X80790000Y-85290000D02*
X82148000Y-85290000D01*
X80790000Y-85330000D02*
X82163000Y-85330000D01*
X80790000Y-85370000D02*
X82178000Y-85370000D01*
X80790000Y-85410000D02*
X82192000Y-85410000D01*
X80790000Y-85450000D02*
X82205000Y-85450000D01*
X80790000Y-85490000D02*
X82217000Y-85490000D01*
X80790000Y-85530000D02*
X82229000Y-85530000D01*
X80790000Y-85570000D02*
X82240000Y-85570000D01*
X80790000Y-85610000D02*
X82251000Y-85610000D01*
X80790000Y-85650000D02*
X82260000Y-85650000D01*
X80790000Y-85690000D02*
X82269000Y-85690000D01*
X80790000Y-85730000D02*
X82278000Y-85730000D01*
X80790000Y-85770000D02*
X82286000Y-85770000D01*
X80790000Y-85810000D02*
X82293000Y-85810000D01*
X80790000Y-85850000D02*
X82299000Y-85850000D01*
X80790000Y-85890000D02*
X82305000Y-85890000D01*
X80790000Y-85930000D02*
X82310000Y-85930000D01*
X80790000Y-85970000D02*
X82315000Y-85970000D01*
X80790000Y-86010000D02*
X82319000Y-86010000D01*
X82370000Y-86250000D02*
G75*
G02*
X77130000Y-86250000I-2620000J0D01*
G01*
X77130000Y-86250000D02*
G75*
G02*
X82370000Y-86250000I2620000J0D01*
G01*
%TO.C,Q2*%
X87640000Y-104430000D02*
X92260000Y-104430000D01*
X87640000Y-114650000D02*
X87640000Y-104430000D01*
X90880000Y-104430000D02*
X90880000Y-114650000D01*
X92260000Y-104430000D02*
X92260000Y-114650000D01*
X92260000Y-107690000D02*
X90880000Y-107690000D01*
X92260000Y-111390000D02*
X90880000Y-111390000D01*
X92260000Y-114650000D02*
X87640000Y-114650000D01*
%TO.C,D1*%
X85500000Y-85480000D02*
X85500000Y-86130000D01*
X85500000Y-91020000D02*
X85500000Y-90370000D01*
X86620000Y-86730000D02*
X84380000Y-86730000D01*
X86620000Y-86850000D02*
X84380000Y-86850000D01*
X86620000Y-86970000D02*
X84380000Y-86970000D01*
X84380000Y-86130000D02*
X86620000Y-86130000D01*
X86620000Y-90370000D01*
X84380000Y-90370000D01*
X84380000Y-86130000D01*
%TO.C,U1*%
X71690000Y-90840000D02*
X71690000Y-101120000D01*
X71690000Y-101120000D02*
X76190000Y-101120000D01*
X72940000Y-90840000D02*
X71690000Y-90840000D01*
X76190000Y-90840000D02*
X74940000Y-90840000D01*
X76190000Y-101120000D02*
X76190000Y-90840000D01*
X74940000Y-90840000D02*
G75*
G02*
X72940000Y-90840000I-1000000J0D01*
G01*
%TO.C,J1*%
X52120000Y-96370000D02*
X53500000Y-96370000D01*
X52120000Y-97750000D02*
X52120000Y-96370000D01*
X52120000Y-99020000D02*
X52120000Y-101670000D01*
X52120000Y-99020000D02*
X54880000Y-99020000D01*
X52120000Y-101670000D02*
X54880000Y-101670000D01*
X54880000Y-99020000D02*
X54880000Y-101670000D01*
%TD*%
D51*
X43250000Y-75553072D02*
X98924424Y-75553072D01*
X98924424Y-124264938D01*
X43250000Y-124264938D01*
X43250000Y-75553072D01*
M02*
