%TF.GenerationSoftware,KiCad,Pcbnew,10.0.0-rc1.1*%
%TF.CreationDate,2026-06-17T20:55:57+05:30*%
%TF.ProjectId,Water Alarm,57617465-7220-4416-9c61-726d2e6b6963,rev?*%
%TF.SameCoordinates,Original*%
%TF.FileFunction,Legend,Top*%
%TF.FilePolarity,Positive*%
%FSLAX46Y46*%
G04 Gerber Fmt 4.6, Leading zero omitted, Abs format (unit mm)*
G04 Created by KiCad (PCBNEW 10.0.0-rc1.1) date 2026-06-17 20:55:57*
%MOMM*%
%LPD*%
G01*
G04 APERTURE LIST*
%ADD10C,0.300000*%
%ADD11C,0.100000*%
%ADD12C,0.500000*%
%ADD13C,0.150000*%
%ADD14C,0.000000*%
%ADD15C,0.120000*%
G04 APERTURE END LIST*
D10*
X154928572Y-118749757D02*
X154785715Y-118678328D01*
X154785715Y-118678328D02*
X154571429Y-118678328D01*
X154571429Y-118678328D02*
X154357143Y-118749757D01*
X154357143Y-118749757D02*
X154214286Y-118892614D01*
X154214286Y-118892614D02*
X154142857Y-119035471D01*
X154142857Y-119035471D02*
X154071429Y-119321185D01*
X154071429Y-119321185D02*
X154071429Y-119535471D01*
X154071429Y-119535471D02*
X154142857Y-119821185D01*
X154142857Y-119821185D02*
X154214286Y-119964042D01*
X154214286Y-119964042D02*
X154357143Y-120106900D01*
X154357143Y-120106900D02*
X154571429Y-120178328D01*
X154571429Y-120178328D02*
X154714286Y-120178328D01*
X154714286Y-120178328D02*
X154928572Y-120106900D01*
X154928572Y-120106900D02*
X155000000Y-120035471D01*
X155000000Y-120035471D02*
X155000000Y-119535471D01*
X155000000Y-119535471D02*
X154714286Y-119535471D01*
X155857143Y-118678328D02*
X155857143Y-119035471D01*
X155500000Y-118892614D02*
X155857143Y-119035471D01*
X155857143Y-119035471D02*
X156214286Y-118892614D01*
X155642857Y-119321185D02*
X155857143Y-119035471D01*
X155857143Y-119035471D02*
X156071429Y-119321185D01*
X157000000Y-118678328D02*
X157000000Y-119035471D01*
X156642857Y-118892614D02*
X157000000Y-119035471D01*
X157000000Y-119035471D02*
X157357143Y-118892614D01*
X156785714Y-119321185D02*
X157000000Y-119035471D01*
X157000000Y-119035471D02*
X157214286Y-119321185D01*
X158142857Y-118678328D02*
X158142857Y-119035471D01*
X157785714Y-118892614D02*
X158142857Y-119035471D01*
X158142857Y-119035471D02*
X158500000Y-118892614D01*
X157928571Y-119321185D02*
X158142857Y-119035471D01*
X158142857Y-119035471D02*
X158357143Y-119321185D01*
D11*
X140933609Y-108130952D02*
X140981228Y-107988095D01*
X140981228Y-107988095D02*
X141028847Y-107940476D01*
X141028847Y-107940476D02*
X141124085Y-107892857D01*
X141124085Y-107892857D02*
X141266942Y-107892857D01*
X141266942Y-107892857D02*
X141362180Y-107940476D01*
X141362180Y-107940476D02*
X141409800Y-107988095D01*
X141409800Y-107988095D02*
X141457419Y-108083333D01*
X141457419Y-108083333D02*
X141457419Y-108464285D01*
X141457419Y-108464285D02*
X140457419Y-108464285D01*
X140457419Y-108464285D02*
X140457419Y-108130952D01*
X140457419Y-108130952D02*
X140505038Y-108035714D01*
X140505038Y-108035714D02*
X140552657Y-107988095D01*
X140552657Y-107988095D02*
X140647895Y-107940476D01*
X140647895Y-107940476D02*
X140743133Y-107940476D01*
X140743133Y-107940476D02*
X140838371Y-107988095D01*
X140838371Y-107988095D02*
X140885990Y-108035714D01*
X140885990Y-108035714D02*
X140933609Y-108130952D01*
X140933609Y-108130952D02*
X140933609Y-108464285D01*
X140457419Y-107559523D02*
X140457419Y-106892857D01*
X140457419Y-106892857D02*
X141457419Y-107559523D01*
X141457419Y-107559523D02*
X141457419Y-106892857D01*
X141457419Y-105988095D02*
X141457419Y-106559523D01*
X141457419Y-106273809D02*
X140457419Y-106273809D01*
X140457419Y-106273809D02*
X140600276Y-106369047D01*
X140600276Y-106369047D02*
X140695514Y-106464285D01*
X140695514Y-106464285D02*
X140743133Y-106559523D01*
D12*
X145464000Y-108606767D02*
X145464000Y-106321053D01*
X146606857Y-107463910D02*
X144321142Y-107463910D01*
D13*
X167702319Y-110333333D02*
X168416604Y-110333333D01*
X168416604Y-110333333D02*
X168559461Y-110380952D01*
X168559461Y-110380952D02*
X168654700Y-110476190D01*
X168654700Y-110476190D02*
X168702319Y-110619047D01*
X168702319Y-110619047D02*
X168702319Y-110714285D01*
X167797557Y-109904761D02*
X167749938Y-109857142D01*
X167749938Y-109857142D02*
X167702319Y-109761904D01*
X167702319Y-109761904D02*
X167702319Y-109523809D01*
X167702319Y-109523809D02*
X167749938Y-109428571D01*
X167749938Y-109428571D02*
X167797557Y-109380952D01*
X167797557Y-109380952D02*
X167892795Y-109333333D01*
X167892795Y-109333333D02*
X167988033Y-109333333D01*
X167988033Y-109333333D02*
X168130890Y-109380952D01*
X168130890Y-109380952D02*
X168702319Y-109952380D01*
X168702319Y-109952380D02*
X168702319Y-109333333D01*
X160309580Y-94916666D02*
X160357200Y-94964285D01*
X160357200Y-94964285D02*
X160404819Y-95107142D01*
X160404819Y-95107142D02*
X160404819Y-95202380D01*
X160404819Y-95202380D02*
X160357200Y-95345237D01*
X160357200Y-95345237D02*
X160261961Y-95440475D01*
X160261961Y-95440475D02*
X160166723Y-95488094D01*
X160166723Y-95488094D02*
X159976247Y-95535713D01*
X159976247Y-95535713D02*
X159833390Y-95535713D01*
X159833390Y-95535713D02*
X159642914Y-95488094D01*
X159642914Y-95488094D02*
X159547676Y-95440475D01*
X159547676Y-95440475D02*
X159452438Y-95345237D01*
X159452438Y-95345237D02*
X159404819Y-95202380D01*
X159404819Y-95202380D02*
X159404819Y-95107142D01*
X159404819Y-95107142D02*
X159452438Y-94964285D01*
X159452438Y-94964285D02*
X159500057Y-94916666D01*
X160404819Y-93964285D02*
X160404819Y-94535713D01*
X160404819Y-94249999D02*
X159404819Y-94249999D01*
X159404819Y-94249999D02*
X159547676Y-94345237D01*
X159547676Y-94345237D02*
X159642914Y-94440475D01*
X159642914Y-94440475D02*
X159690533Y-94535713D01*
X163534819Y-108666666D02*
X163058628Y-108999999D01*
X163534819Y-109238094D02*
X162534819Y-109238094D01*
X162534819Y-109238094D02*
X162534819Y-108857142D01*
X162534819Y-108857142D02*
X162582438Y-108761904D01*
X162582438Y-108761904D02*
X162630057Y-108714285D01*
X162630057Y-108714285D02*
X162725295Y-108666666D01*
X162725295Y-108666666D02*
X162868152Y-108666666D01*
X162868152Y-108666666D02*
X162963390Y-108714285D01*
X162963390Y-108714285D02*
X163011009Y-108761904D01*
X163011009Y-108761904D02*
X163058628Y-108857142D01*
X163058628Y-108857142D02*
X163058628Y-109238094D01*
X162630057Y-108285713D02*
X162582438Y-108238094D01*
X162582438Y-108238094D02*
X162534819Y-108142856D01*
X162534819Y-108142856D02*
X162534819Y-107904761D01*
X162534819Y-107904761D02*
X162582438Y-107809523D01*
X162582438Y-107809523D02*
X162630057Y-107761904D01*
X162630057Y-107761904D02*
X162725295Y-107714285D01*
X162725295Y-107714285D02*
X162820533Y-107714285D01*
X162820533Y-107714285D02*
X162963390Y-107761904D01*
X162963390Y-107761904D02*
X163534819Y-108333332D01*
X163534819Y-108333332D02*
X163534819Y-107714285D01*
X161490057Y-115575238D02*
X161442438Y-115670476D01*
X161442438Y-115670476D02*
X161347200Y-115765714D01*
X161347200Y-115765714D02*
X161204342Y-115908571D01*
X161204342Y-115908571D02*
X161156723Y-116003809D01*
X161156723Y-116003809D02*
X161156723Y-116099047D01*
X161394819Y-116051428D02*
X161347200Y-116146666D01*
X161347200Y-116146666D02*
X161251961Y-116241904D01*
X161251961Y-116241904D02*
X161061485Y-116289523D01*
X161061485Y-116289523D02*
X160728152Y-116289523D01*
X160728152Y-116289523D02*
X160537676Y-116241904D01*
X160537676Y-116241904D02*
X160442438Y-116146666D01*
X160442438Y-116146666D02*
X160394819Y-116051428D01*
X160394819Y-116051428D02*
X160394819Y-115860952D01*
X160394819Y-115860952D02*
X160442438Y-115765714D01*
X160442438Y-115765714D02*
X160537676Y-115670476D01*
X160537676Y-115670476D02*
X160728152Y-115622857D01*
X160728152Y-115622857D02*
X161061485Y-115622857D01*
X161061485Y-115622857D02*
X161251961Y-115670476D01*
X161251961Y-115670476D02*
X161347200Y-115765714D01*
X161347200Y-115765714D02*
X161394819Y-115860952D01*
X161394819Y-115860952D02*
X161394819Y-116051428D01*
X161394819Y-114670476D02*
X161394819Y-115241904D01*
X161394819Y-114956190D02*
X160394819Y-114956190D01*
X160394819Y-114956190D02*
X160537676Y-115051428D01*
X160537676Y-115051428D02*
X160632914Y-115146666D01*
X160632914Y-115146666D02*
X160680533Y-115241904D01*
X158534819Y-89126666D02*
X158058628Y-89459999D01*
X158534819Y-89698094D02*
X157534819Y-89698094D01*
X157534819Y-89698094D02*
X157534819Y-89317142D01*
X157534819Y-89317142D02*
X157582438Y-89221904D01*
X157582438Y-89221904D02*
X157630057Y-89174285D01*
X157630057Y-89174285D02*
X157725295Y-89126666D01*
X157725295Y-89126666D02*
X157868152Y-89126666D01*
X157868152Y-89126666D02*
X157963390Y-89174285D01*
X157963390Y-89174285D02*
X158011009Y-89221904D01*
X158011009Y-89221904D02*
X158058628Y-89317142D01*
X158058628Y-89317142D02*
X158058628Y-89698094D01*
X158534819Y-88174285D02*
X158534819Y-88745713D01*
X158534819Y-88459999D02*
X157534819Y-88459999D01*
X157534819Y-88459999D02*
X157677676Y-88555237D01*
X157677676Y-88555237D02*
X157772914Y-88650475D01*
X157772914Y-88650475D02*
X157820533Y-88745713D01*
X163654819Y-95333333D02*
X164369104Y-95333333D01*
X164369104Y-95333333D02*
X164511961Y-95380952D01*
X164511961Y-95380952D02*
X164607200Y-95476190D01*
X164607200Y-95476190D02*
X164654819Y-95619047D01*
X164654819Y-95619047D02*
X164654819Y-95714285D01*
X164654819Y-94333333D02*
X164654819Y-94904761D01*
X164654819Y-94619047D02*
X163654819Y-94619047D01*
X163654819Y-94619047D02*
X163797676Y-94714285D01*
X163797676Y-94714285D02*
X163892914Y-94809523D01*
X163892914Y-94809523D02*
X163940533Y-94904761D01*
D14*
%TO.C,G\u002A\u002A\u002A*%
G36*
X157560059Y-115919526D02*
G01*
X157661087Y-115939396D01*
X157708448Y-115955397D01*
X157817001Y-116019166D01*
X157926442Y-116119831D01*
X158036226Y-116256712D01*
X158145805Y-116429130D01*
X158252925Y-116632864D01*
X158387013Y-116938796D01*
X158509045Y-117274596D01*
X158617885Y-117634153D01*
X158712397Y-118011354D01*
X158791444Y-118400087D01*
X158853891Y-118794239D01*
X158898602Y-119187697D01*
X158924440Y-119574350D01*
X158930269Y-119948085D01*
X158920370Y-120223834D01*
X158894719Y-120540524D01*
X158858192Y-120829756D01*
X158811205Y-121090522D01*
X158754170Y-121321814D01*
X158687500Y-121522623D01*
X158611609Y-121691942D01*
X158526909Y-121828763D01*
X158433814Y-121932076D01*
X158332737Y-122000876D01*
X158224091Y-122034152D01*
X158177091Y-122037294D01*
X158129033Y-122033745D01*
X158078638Y-122021360D01*
X158020619Y-121997528D01*
X157949689Y-121959640D01*
X157860561Y-121905087D01*
X157747950Y-121831259D01*
X157715374Y-121809394D01*
X157606338Y-121738875D01*
X157496465Y-121674477D01*
X157376664Y-121611365D01*
X157237842Y-121544701D01*
X157104345Y-121484396D01*
X156774701Y-121342224D01*
X156473308Y-121220381D01*
X156197332Y-121118032D01*
X155943940Y-121034345D01*
X155710302Y-120968488D01*
X155493584Y-120919628D01*
X155290953Y-120886931D01*
X155099578Y-120869566D01*
X155002142Y-120866299D01*
X154760132Y-120863064D01*
X154720637Y-120915465D01*
X154691089Y-120983165D01*
X154679868Y-121083213D01*
X154686959Y-121215133D01*
X154712343Y-121378448D01*
X154741107Y-121511695D01*
X154764125Y-121610840D01*
X154784708Y-121702681D01*
X154800857Y-121778071D01*
X154810573Y-121827869D01*
X154811562Y-121833909D01*
X154830300Y-121895407D01*
X154862646Y-121957289D01*
X154868381Y-121965515D01*
X154931513Y-122052497D01*
X154975437Y-122117148D01*
X155003487Y-122167235D01*
X155018993Y-122210524D01*
X155025290Y-122254784D01*
X155025709Y-122307779D01*
X155025056Y-122330675D01*
X155024005Y-122395269D01*
X155028234Y-122443118D01*
X155041474Y-122486235D01*
X155067453Y-122536634D01*
X155109904Y-122606328D01*
X155111382Y-122608700D01*
X155174727Y-122725051D01*
X155208321Y-122825291D01*
X155213373Y-122914644D01*
X155197769Y-122981551D01*
X155170995Y-123057611D01*
X155157582Y-123110826D01*
X155157624Y-123153535D01*
X155171212Y-123198075D01*
X155198440Y-123256785D01*
X155199853Y-123259683D01*
X155233535Y-123339217D01*
X155243366Y-123395469D01*
X155228946Y-123434548D01*
X155189877Y-123462563D01*
X155186503Y-123464134D01*
X155131745Y-123477522D01*
X155050452Y-123483085D01*
X154952832Y-123480980D01*
X154849094Y-123471365D01*
X154764729Y-123457608D01*
X154599050Y-123414547D01*
X154463603Y-123357405D01*
X154352865Y-123283737D01*
X154332735Y-123266391D01*
X154270362Y-123204843D01*
X154216780Y-123138301D01*
X154170250Y-123062264D01*
X154129033Y-122972228D01*
X154091390Y-122863694D01*
X154055583Y-122732157D01*
X154019871Y-122573116D01*
X153982518Y-122382069D01*
X153974631Y-122339264D01*
X153936453Y-122135903D01*
X153901828Y-121965031D01*
X153869359Y-121821864D01*
X153837648Y-121701615D01*
X153805296Y-121599501D01*
X153770906Y-121510737D01*
X153733080Y-121430536D01*
X153690418Y-121354115D01*
X153683397Y-121342487D01*
X153590134Y-121213343D01*
X153485600Y-121117501D01*
X153363786Y-121051030D01*
X153218682Y-121010000D01*
X153161062Y-121000894D01*
X153073364Y-120987696D01*
X152986130Y-120971860D01*
X152916932Y-120956602D01*
X152911661Y-120955226D01*
X152792994Y-120909189D01*
X152693153Y-120838492D01*
X152611572Y-120741722D01*
X152547687Y-120617465D01*
X152500930Y-120464309D01*
X152470737Y-120280839D01*
X152456542Y-120065643D01*
X152457664Y-119820818D01*
X152466283Y-119646121D01*
X152481303Y-119502074D01*
X152505125Y-119381935D01*
X152540147Y-119278968D01*
X152588769Y-119186431D01*
X152653391Y-119097587D01*
X152736412Y-119005695D01*
X152754409Y-118987390D01*
X152811358Y-118932430D01*
X152867663Y-118884374D01*
X152927753Y-118841069D01*
X152996055Y-118800360D01*
X153076997Y-118760095D01*
X153175005Y-118718120D01*
X153294508Y-118672282D01*
X153439933Y-118620428D01*
X153568892Y-118576390D01*
X157154002Y-118576390D01*
X157156293Y-118760714D01*
X157162109Y-118947793D01*
X157171228Y-119128979D01*
X157183422Y-119295626D01*
X157198468Y-119439087D01*
X157206072Y-119493537D01*
X157252336Y-119759117D01*
X157305138Y-119994705D01*
X157366371Y-120207624D01*
X157437928Y-120405196D01*
X157448297Y-120430644D01*
X157487071Y-120517009D01*
X157528986Y-120598020D01*
X157569861Y-120666771D01*
X157605511Y-120716354D01*
X157631751Y-120739863D01*
X157636211Y-120740858D01*
X157657069Y-120726906D01*
X157694722Y-120689213D01*
X157743273Y-120634022D01*
X157782491Y-120585917D01*
X157927494Y-120372447D01*
X158040671Y-120139394D01*
X158121736Y-119887644D01*
X158170400Y-119618088D01*
X158186380Y-119334132D01*
X158172063Y-119074919D01*
X158130683Y-118820982D01*
X158064124Y-118577237D01*
X157974268Y-118348600D01*
X157862998Y-118139990D01*
X157732198Y-117956323D01*
X157608386Y-117824710D01*
X157545762Y-117771760D01*
X157476204Y-117720867D01*
X157406944Y-117676355D01*
X157345219Y-117642553D01*
X157298263Y-117623787D01*
X157273349Y-117624344D01*
X157259508Y-117653522D01*
X157242531Y-117712562D01*
X157223944Y-117794010D01*
X157205274Y-117890416D01*
X157188046Y-117994329D01*
X157173786Y-118098297D01*
X157170532Y-118126408D01*
X157160897Y-118250590D01*
X157155461Y-118403467D01*
X157154002Y-118576390D01*
X153568892Y-118576390D01*
X153615707Y-118560403D01*
X153669482Y-118542337D01*
X153848463Y-118481866D01*
X153998244Y-118429808D01*
X154125501Y-118383323D01*
X154236915Y-118339571D01*
X154339161Y-118295715D01*
X154438920Y-118248914D01*
X154542868Y-118196331D01*
X154657684Y-118135125D01*
X154762574Y-118077644D01*
X155179222Y-117840452D01*
X155560088Y-117608580D01*
X155906479Y-117381162D01*
X156219703Y-117157331D01*
X156501067Y-116936221D01*
X156563011Y-116884302D01*
X156668591Y-116792032D01*
X156747919Y-116715825D01*
X156805637Y-116650305D01*
X156846385Y-116590098D01*
X156874804Y-116529829D01*
X156879080Y-116518247D01*
X156951366Y-116340312D01*
X157031128Y-116190559D01*
X157116743Y-116071051D01*
X157206587Y-115983852D01*
X157299040Y-115931025D01*
X157351853Y-115917148D01*
X157450949Y-115911463D01*
X157560059Y-115919526D01*
G37*
G36*
X159705246Y-115557265D02*
G01*
X159747099Y-115600012D01*
X159811244Y-115672765D01*
X159875836Y-115749223D01*
X160105203Y-116052488D01*
X160310171Y-116382236D01*
X160489140Y-116735046D01*
X160640512Y-117107500D01*
X160762686Y-117496178D01*
X160834655Y-117798519D01*
X160898657Y-118184361D01*
X160936699Y-118590236D01*
X160948651Y-119008848D01*
X160934380Y-119432904D01*
X160893754Y-119855108D01*
X160874313Y-119994305D01*
X160818589Y-120309095D01*
X160747602Y-120620690D01*
X160663147Y-120923983D01*
X160567021Y-121213865D01*
X160461020Y-121485228D01*
X160346939Y-121732966D01*
X160226575Y-121951971D01*
X160138366Y-122087110D01*
X160085844Y-122158849D01*
X160033371Y-122226228D01*
X159985585Y-122283819D01*
X159947126Y-122326194D01*
X159922633Y-122347926D01*
X159916209Y-122347018D01*
X159922784Y-122323680D01*
X159940684Y-122272825D01*
X159967215Y-122201827D01*
X159999686Y-122118061D01*
X160001448Y-122113592D01*
X160112507Y-121813045D01*
X160217492Y-121491962D01*
X160313131Y-121161969D01*
X160396152Y-120834689D01*
X160463286Y-120521749D01*
X160488298Y-120383642D01*
X160530759Y-120105767D01*
X160561088Y-119841336D01*
X160580123Y-119578261D01*
X160588704Y-119304450D01*
X160587669Y-119007815D01*
X160586814Y-118964174D01*
X160571557Y-118587070D01*
X160541405Y-118234735D01*
X160494602Y-117896711D01*
X160429395Y-117562536D01*
X160344027Y-117221750D01*
X160236744Y-116863892D01*
X160231972Y-116849075D01*
X160176579Y-116686096D01*
X160111836Y-116509899D01*
X160040797Y-116327782D01*
X159966519Y-116147045D01*
X159892058Y-115974987D01*
X159820469Y-115818907D01*
X159754808Y-115686104D01*
X159712470Y-115608216D01*
X159688028Y-115561451D01*
X159685588Y-115544439D01*
X159705246Y-115557265D01*
G37*
G36*
X159350969Y-116316252D02*
G01*
X159390857Y-116349741D01*
X159444440Y-116398730D01*
X159487585Y-116440155D01*
X159655517Y-116629285D01*
X159805546Y-116850034D01*
X159892515Y-117009031D01*
X160012687Y-117281058D01*
X160113151Y-117575602D01*
X160194033Y-117888550D01*
X160255457Y-118215793D01*
X160297549Y-118553217D01*
X160320432Y-118896712D01*
X160324233Y-119242165D01*
X160309075Y-119585466D01*
X160275085Y-119922501D01*
X160222386Y-120249160D01*
X160151104Y-120561331D01*
X160061363Y-120854903D01*
X159953288Y-121125762D01*
X159827005Y-121369799D01*
X159756673Y-121481066D01*
X159699702Y-121562327D01*
X159644505Y-121636055D01*
X159595082Y-121697476D01*
X159555434Y-121741817D01*
X159529559Y-121764305D01*
X159521354Y-121761887D01*
X159528807Y-121736851D01*
X159548629Y-121687220D01*
X159577018Y-121622343D01*
X159586887Y-121600764D01*
X159629490Y-121500141D01*
X159677832Y-121372065D01*
X159728944Y-121225663D01*
X159779856Y-121070064D01*
X159827600Y-120914392D01*
X159869205Y-120767777D01*
X159901704Y-120639343D01*
X159906403Y-120618653D01*
X159986941Y-120184755D01*
X160037734Y-119745341D01*
X160059164Y-119304193D01*
X160051610Y-118865094D01*
X160015453Y-118431829D01*
X159951074Y-118008180D01*
X159858852Y-117597931D01*
X159739168Y-117204866D01*
X159592402Y-116832767D01*
X159507771Y-116653337D01*
X159463086Y-116565550D01*
X159419627Y-116482924D01*
X159382690Y-116415370D01*
X159359635Y-116376024D01*
X159336122Y-116333552D01*
X159328118Y-116307611D01*
X159331183Y-116303849D01*
X159350969Y-116316252D01*
G37*
G36*
X159016683Y-116976986D02*
G01*
X159054023Y-117003940D01*
X159105010Y-117044193D01*
X159114194Y-117051718D01*
X159253405Y-117189398D01*
X159378013Y-117360473D01*
X159487383Y-117563427D01*
X159580881Y-117796744D01*
X159657873Y-118058908D01*
X159717723Y-118348403D01*
X159749421Y-118569356D01*
X159759232Y-118681170D01*
X159766042Y-118820832D01*
X159769856Y-118978710D01*
X159770681Y-119145170D01*
X159768524Y-119310578D01*
X159763390Y-119465303D01*
X159755286Y-119599711D01*
X159748705Y-119669208D01*
X159705456Y-119965470D01*
X159644961Y-120253241D01*
X159569225Y-120525084D01*
X159480249Y-120773562D01*
X159406939Y-120938268D01*
X159363390Y-121021868D01*
X159314524Y-121107332D01*
X159264559Y-121188215D01*
X159217711Y-121258070D01*
X159178197Y-121310454D01*
X159150234Y-121338922D01*
X159142647Y-121342211D01*
X159143307Y-121326293D01*
X159155669Y-121283700D01*
X159177260Y-121222582D01*
X159185586Y-121200772D01*
X159259058Y-120990687D01*
X159328211Y-120752368D01*
X159390823Y-120495126D01*
X159444672Y-120228270D01*
X159487534Y-119961111D01*
X159495140Y-119904219D01*
X159509982Y-119754539D01*
X159520316Y-119577739D01*
X159526139Y-119383637D01*
X159527451Y-119182048D01*
X159524250Y-118982788D01*
X159516533Y-118795674D01*
X159504299Y-118630520D01*
X159495380Y-118550555D01*
X159436833Y-118194340D01*
X159356565Y-117856901D01*
X159255861Y-117542713D01*
X159136008Y-117256250D01*
X159105274Y-117193579D01*
X159064563Y-117111772D01*
X159031521Y-117042946D01*
X159009133Y-116993509D01*
X159000389Y-116969872D01*
X159000520Y-116968823D01*
X159016683Y-116976986D01*
G37*
G36*
X152642461Y-118967637D02*
G01*
X152624278Y-119000612D01*
X152604074Y-119028151D01*
X152520077Y-119156037D01*
X152455383Y-119304657D01*
X152409179Y-119477202D01*
X152380650Y-119676866D01*
X152368981Y-119906842D01*
X152368610Y-119951221D01*
X152368998Y-120069482D01*
X152371473Y-120159114D01*
X152376922Y-120229071D01*
X152386236Y-120288308D01*
X152400303Y-120345779D01*
X152411550Y-120383642D01*
X152454746Y-120504581D01*
X152507622Y-120613348D01*
X152577474Y-120723599D01*
X152635003Y-120801961D01*
X152717630Y-120910066D01*
X152646028Y-120907774D01*
X152586407Y-120903717D01*
X152510363Y-120895769D01*
X152461621Y-120889446D01*
X152254990Y-120850781D01*
X152070113Y-120797296D01*
X151911579Y-120730654D01*
X151783975Y-120652517D01*
X151763957Y-120636796D01*
X151691879Y-120560188D01*
X151628218Y-120458655D01*
X151623026Y-120448323D01*
X151593198Y-120382823D01*
X151574052Y-120324327D01*
X151562541Y-120259342D01*
X151555621Y-120174377D01*
X151553954Y-120142358D01*
X151555796Y-120008850D01*
X151759182Y-120008850D01*
X151766918Y-120118649D01*
X151787622Y-120220210D01*
X151823981Y-120327382D01*
X151870011Y-120435022D01*
X151904787Y-120503647D01*
X151932423Y-120542748D01*
X151950746Y-120551085D01*
X151957586Y-120527419D01*
X151952946Y-120482346D01*
X151942414Y-120429809D01*
X151925715Y-120355561D01*
X151906170Y-120274274D01*
X151902960Y-120261436D01*
X151888517Y-120199355D01*
X151878836Y-120142379D01*
X151873435Y-120081828D01*
X151871831Y-120009019D01*
X151873334Y-119926754D01*
X152048655Y-119926754D01*
X152049691Y-120040677D01*
X152061486Y-120150544D01*
X152085427Y-120269069D01*
X152122900Y-120408963D01*
X152124368Y-120414040D01*
X152152524Y-120506581D01*
X152175607Y-120568374D01*
X152197067Y-120605299D01*
X152220351Y-120623232D01*
X152248906Y-120628050D01*
X152249905Y-120628053D01*
X152276475Y-120620986D01*
X152277091Y-120593131D01*
X152275083Y-120585751D01*
X152226067Y-120401953D01*
X152191918Y-120233447D01*
X152171178Y-120067856D01*
X152162389Y-119892800D01*
X152164093Y-119695901D01*
X152165479Y-119655107D01*
X152168756Y-119538427D01*
X152168458Y-119456658D01*
X152164481Y-119407273D01*
X152156724Y-119387741D01*
X152154697Y-119387194D01*
X152132562Y-119396010D01*
X152113817Y-119424847D01*
X152097604Y-119477291D01*
X152083068Y-119556929D01*
X152069352Y-119667345D01*
X152056994Y-119796065D01*
X152048655Y-119926754D01*
X151873334Y-119926754D01*
X151873544Y-119915272D01*
X151877581Y-119804361D01*
X151882031Y-119690917D01*
X151884434Y-119610029D01*
X151884367Y-119556688D01*
X151881411Y-119525884D01*
X151875145Y-119512605D01*
X151865149Y-119511843D01*
X151853489Y-119517250D01*
X151821768Y-119545584D01*
X151797685Y-119595042D01*
X151780132Y-119669963D01*
X151768003Y-119774687D01*
X151761727Y-119876961D01*
X151759182Y-120008850D01*
X151555796Y-120008850D01*
X151556889Y-119929607D01*
X151587206Y-119741101D01*
X151644715Y-119577471D01*
X151729228Y-119439346D01*
X151782978Y-119378615D01*
X151838640Y-119330786D01*
X151913391Y-119281054D01*
X152013093Y-119225832D01*
X152117764Y-119173851D01*
X152248874Y-119112139D01*
X152368872Y-119057907D01*
X152473058Y-119013124D01*
X152556732Y-118979761D01*
X152615195Y-118959789D01*
X152640315Y-118954774D01*
X152642461Y-118967637D01*
G37*
%TO.C,BZ1*%
D11*
X160800000Y-103250000D02*
G75*
G02*
X130200000Y-103250000I-15300000J0D01*
G01*
X130200000Y-103250000D02*
G75*
G02*
X160800000Y-103250000I15300000J0D01*
G01*
%TO.C,J2*%
D15*
X169247500Y-115120000D02*
X169247500Y-104880000D01*
X176867500Y-115120000D02*
X176867500Y-104880000D01*
X177967500Y-115120000D02*
X177967500Y-104880000D01*
X178487500Y-115120000D02*
X169247500Y-115120000D01*
X178487500Y-112800000D02*
X178487500Y-115120000D01*
X169247500Y-104880000D02*
X178487500Y-104880000D01*
X178487500Y-104880000D02*
X178487500Y-112200000D01*
X179097500Y-112940000D02*
X178487500Y-112500000D01*
X179097500Y-112060000D01*
X179097500Y-112940000D01*
G36*
X179097500Y-112940000D02*
G01*
X178487500Y-112500000D01*
X179097500Y-112060000D01*
X179097500Y-112940000D01*
G37*
%TO.C,C1*%
X161080000Y-95515000D02*
X161080000Y-93985000D01*
X162920000Y-93985000D02*
X162920000Y-95515000D01*
%TO.C,R2*%
X164080000Y-110420000D02*
X164080000Y-106580000D01*
X165920000Y-110420000D02*
X165920000Y-106580000D01*
%TO.C,Q1*%
X166350000Y-117280000D02*
X166350000Y-113680000D01*
X166338478Y-117318478D02*
G75*
G02*
X161899999Y-115480000I-1838478J1838478D01*
G01*
X161900000Y-115480000D02*
G75*
G02*
X166338478Y-113641522I2600000J0D01*
G01*
%TO.C,R1*%
X159080000Y-90880000D02*
X159080000Y-87040000D01*
X160920000Y-90880000D02*
X160920000Y-87040000D01*
%TO.C,J1*%
X165700000Y-99900000D02*
X167000000Y-99900000D01*
X166000000Y-99600000D02*
X166000000Y-97600000D01*
X180500000Y-99600000D02*
X166000000Y-99600000D01*
X165700000Y-98200000D02*
X165700000Y-99900000D01*
X166000000Y-92400000D02*
X166000000Y-90400000D01*
X166000000Y-90400000D02*
X167300000Y-90400000D01*
X171900000Y-90400000D02*
X180500000Y-90400000D01*
X180500000Y-90400000D02*
X180500000Y-99600000D01*
%TD*%
M02*
