%TF.GenerationSoftware,KiCad,Pcbnew,10.0.0-rc1.1*%
%TF.CreationDate,2026-06-17T20:55:57+05:30*%
%TF.ProjectId,Water Alarm,57617465-7220-4416-9c61-726d2e6b6963,rev?*%
%TF.SameCoordinates,Original*%
%TF.FileFunction,Copper,L2,Bot*%
%TF.FilePolarity,Positive*%
%FSLAX46Y46*%
G04 Gerber Fmt 4.6, Leading zero omitted, Abs format (unit mm)*
G04 Created by KiCad (PCBNEW 10.0.0-rc1.1) date 2026-06-17 20:55:57*
%MOMM*%
%LPD*%
G01*
G04 APERTURE LIST*
G04 Aperture macros list*
%AMRoundRect*
0 Rectangle with rounded corners*
0 $1 Rounding radius*
0 $2 $3 $4 $5 $6 $7 $8 $9 X,Y pos of 4 corners*
0 Add a 4 corners polygon primitive as box body*
4,1,4,$2,$3,$4,$5,$6,$7,$8,$9,$2,$3,0*
0 Add four circle primitives for the rounded corners*
1,1,$1+$1,$2,$3*
1,1,$1+$1,$4,$5*
1,1,$1+$1,$6,$7*
1,1,$1+$1,$8,$9*
0 Add four rect primitives between the rounded corners*
20,1,$1+$1,$2,$3,$4,$5,0*
20,1,$1+$1,$4,$5,$6,$7,0*
20,1,$1+$1,$6,$7,$8,$9,0*
20,1,$1+$1,$8,$9,$2,$3,0*%
G04 Aperture macros list end*
%ADD10C,0.300000*%
%TA.AperFunction,NonConductor*%
%ADD11C,0.300000*%
%TD*%
%TA.AperFunction,ComponentPad*%
%ADD12C,2.000000*%
%TD*%
%TA.AperFunction,ComponentPad*%
%ADD13R,2.000000X2.000000*%
%TD*%
%TA.AperFunction,ComponentPad*%
%ADD14RoundRect,0.250000X1.050000X-1.050000X1.050000X1.050000X-1.050000X1.050000X-1.050000X-1.050000X0*%
%TD*%
%TA.AperFunction,ComponentPad*%
%ADD15C,2.600000*%
%TD*%
%TA.AperFunction,ComponentPad*%
%ADD16C,1.600000*%
%TD*%
%TA.AperFunction,ComponentPad*%
%ADD17C,1.400000*%
%TD*%
%TA.AperFunction,ComponentPad*%
%ADD18R,1.500000X1.050000*%
%TD*%
%TA.AperFunction,ComponentPad*%
%ADD19O,1.500000X1.050000*%
%TD*%
%TA.AperFunction,ComponentPad*%
%ADD20R,2.000000X4.600000*%
%TD*%
%TA.AperFunction,ComponentPad*%
%ADD21O,2.000000X4.200000*%
%TD*%
%TA.AperFunction,ComponentPad*%
%ADD22O,4.200000X2.000000*%
%TD*%
G04 APERTURE END LIST*
D10*
D11*
X157909774Y-121050828D02*
X157409774Y-122550828D01*
X157409774Y-122550828D02*
X156909774Y-121050828D01*
X155981203Y-121050828D02*
X155981203Y-122122257D01*
X155981203Y-122122257D02*
X156052632Y-122336542D01*
X156052632Y-122336542D02*
X156195489Y-122479400D01*
X156195489Y-122479400D02*
X156409775Y-122550828D01*
X156409775Y-122550828D02*
X156552632Y-122550828D01*
X154624061Y-121550828D02*
X154624061Y-122550828D01*
X155266918Y-121550828D02*
X155266918Y-122336542D01*
X155266918Y-122336542D02*
X155195489Y-122479400D01*
X155195489Y-122479400D02*
X155052632Y-122550828D01*
X155052632Y-122550828D02*
X154838346Y-122550828D01*
X154838346Y-122550828D02*
X154695489Y-122479400D01*
X154695489Y-122479400D02*
X154624061Y-122407971D01*
X153909775Y-121550828D02*
X153909775Y-122550828D01*
X153909775Y-121693685D02*
X153838346Y-121622257D01*
X153838346Y-121622257D02*
X153695489Y-121550828D01*
X153695489Y-121550828D02*
X153481203Y-121550828D01*
X153481203Y-121550828D02*
X153338346Y-121622257D01*
X153338346Y-121622257D02*
X153266918Y-121765114D01*
X153266918Y-121765114D02*
X153266918Y-122550828D01*
X151981203Y-122479400D02*
X152124060Y-122550828D01*
X152124060Y-122550828D02*
X152409775Y-122550828D01*
X152409775Y-122550828D02*
X152552632Y-122479400D01*
X152552632Y-122479400D02*
X152624060Y-122336542D01*
X152624060Y-122336542D02*
X152624060Y-121765114D01*
X152624060Y-121765114D02*
X152552632Y-121622257D01*
X152552632Y-121622257D02*
X152409775Y-121550828D01*
X152409775Y-121550828D02*
X152124060Y-121550828D01*
X152124060Y-121550828D02*
X151981203Y-121622257D01*
X151981203Y-121622257D02*
X151909775Y-121765114D01*
X151909775Y-121765114D02*
X151909775Y-121907971D01*
X151909775Y-121907971D02*
X152624060Y-122050828D01*
X150195489Y-121193685D02*
X150124061Y-121122257D01*
X150124061Y-121122257D02*
X149981204Y-121050828D01*
X149981204Y-121050828D02*
X149624061Y-121050828D01*
X149624061Y-121050828D02*
X149481204Y-121122257D01*
X149481204Y-121122257D02*
X149409775Y-121193685D01*
X149409775Y-121193685D02*
X149338346Y-121336542D01*
X149338346Y-121336542D02*
X149338346Y-121479400D01*
X149338346Y-121479400D02*
X149409775Y-121693685D01*
X149409775Y-121693685D02*
X150266918Y-122550828D01*
X150266918Y-122550828D02*
X149338346Y-122550828D01*
X148409775Y-121050828D02*
X148266918Y-121050828D01*
X148266918Y-121050828D02*
X148124061Y-121122257D01*
X148124061Y-121122257D02*
X148052633Y-121193685D01*
X148052633Y-121193685D02*
X147981204Y-121336542D01*
X147981204Y-121336542D02*
X147909775Y-121622257D01*
X147909775Y-121622257D02*
X147909775Y-121979400D01*
X147909775Y-121979400D02*
X147981204Y-122265114D01*
X147981204Y-122265114D02*
X148052633Y-122407971D01*
X148052633Y-122407971D02*
X148124061Y-122479400D01*
X148124061Y-122479400D02*
X148266918Y-122550828D01*
X148266918Y-122550828D02*
X148409775Y-122550828D01*
X148409775Y-122550828D02*
X148552633Y-122479400D01*
X148552633Y-122479400D02*
X148624061Y-122407971D01*
X148624061Y-122407971D02*
X148695490Y-122265114D01*
X148695490Y-122265114D02*
X148766918Y-121979400D01*
X148766918Y-121979400D02*
X148766918Y-121622257D01*
X148766918Y-121622257D02*
X148695490Y-121336542D01*
X148695490Y-121336542D02*
X148624061Y-121193685D01*
X148624061Y-121193685D02*
X148552633Y-121122257D01*
X148552633Y-121122257D02*
X148409775Y-121050828D01*
X147338347Y-121193685D02*
X147266919Y-121122257D01*
X147266919Y-121122257D02*
X147124062Y-121050828D01*
X147124062Y-121050828D02*
X146766919Y-121050828D01*
X146766919Y-121050828D02*
X146624062Y-121122257D01*
X146624062Y-121122257D02*
X146552633Y-121193685D01*
X146552633Y-121193685D02*
X146481204Y-121336542D01*
X146481204Y-121336542D02*
X146481204Y-121479400D01*
X146481204Y-121479400D02*
X146552633Y-121693685D01*
X146552633Y-121693685D02*
X147409776Y-122550828D01*
X147409776Y-122550828D02*
X146481204Y-122550828D01*
X145195491Y-121050828D02*
X145481205Y-121050828D01*
X145481205Y-121050828D02*
X145624062Y-121122257D01*
X145624062Y-121122257D02*
X145695491Y-121193685D01*
X145695491Y-121193685D02*
X145838348Y-121407971D01*
X145838348Y-121407971D02*
X145909776Y-121693685D01*
X145909776Y-121693685D02*
X145909776Y-122265114D01*
X145909776Y-122265114D02*
X145838348Y-122407971D01*
X145838348Y-122407971D02*
X145766919Y-122479400D01*
X145766919Y-122479400D02*
X145624062Y-122550828D01*
X145624062Y-122550828D02*
X145338348Y-122550828D01*
X145338348Y-122550828D02*
X145195491Y-122479400D01*
X145195491Y-122479400D02*
X145124062Y-122407971D01*
X145124062Y-122407971D02*
X145052633Y-122265114D01*
X145052633Y-122265114D02*
X145052633Y-121907971D01*
X145052633Y-121907971D02*
X145124062Y-121765114D01*
X145124062Y-121765114D02*
X145195491Y-121693685D01*
X145195491Y-121693685D02*
X145338348Y-121622257D01*
X145338348Y-121622257D02*
X145624062Y-121622257D01*
X145624062Y-121622257D02*
X145766919Y-121693685D01*
X145766919Y-121693685D02*
X145838348Y-121765114D01*
X145838348Y-121765114D02*
X145909776Y-121907971D01*
D12*
%TO.P,BZ1,2,-_2*%
%TO.N,Net-(BZ1--)*%
X145500000Y-95750000D03*
D13*
%TO.P,BZ1,1,+_1*%
%TO.N,VCC*%
X145500000Y-110750000D03*
%TD*%
D14*
%TO.P,J2,1,Pin_1_1*%
%TO.N,VCC*%
X173367500Y-112500000D03*
D15*
%TO.P,J2,2,Pin_2_2*%
%TO.N,/Gate*%
X173367500Y-107500000D03*
%TD*%
D16*
%TO.P,C1,1*%
%TO.N,/Gate*%
X162000000Y-96000000D03*
%TO.P,C1,2*%
%TO.N,GND*%
X162000000Y-93500000D03*
%TD*%
D17*
%TO.P,R2,1*%
%TO.N,Net-(D1-K)*%
X165000000Y-111040000D03*
%TO.P,R2,2*%
%TO.N,GND*%
X165000000Y-105960000D03*
%TD*%
D18*
%TO.P,Q1,1,S_1*%
%TO.N,GND*%
X164500000Y-116750000D03*
D19*
%TO.P,Q1,2,G_2*%
%TO.N,/Gate*%
X164500000Y-115480000D03*
%TO.P,Q1,3,D_3*%
%TO.N,Net-(BZ1--)*%
X164500000Y-114210000D03*
%TD*%
D17*
%TO.P,R1,1*%
%TO.N,/Gate*%
X160000000Y-91500000D03*
%TO.P,R1,2*%
%TO.N,GND*%
X160000000Y-86420000D03*
%TD*%
D20*
%TO.P,J1,1*%
%TO.N,VCC*%
X166700000Y-95000000D03*
D21*
%TO.P,J1,2*%
%TO.N,GND*%
X173000000Y-95000000D03*
D22*
%TO.P,J1,3*%
%TO.N,N/C*%
X169600000Y-90200000D03*
%TD*%
M02*
